<svg width="1024" height="280" viewBox="0 0 1024 280" fill="none" xmlns="http://www.w3.org/2000/svg">
<g clip-path="url(#clip0_104_237)">
<path d="M1024 0H0V280H1024V0Z" fill="#EEF0FB"/>
<path d="M84.08 121V87.784H90.752L100.16 115.864L109.568 87.784H116.24V121H112.544V91.72H111.872L102.224 119.8H98.096L88.448 91.72H87.776V121H84.08Z" fill="#572FAE"/>
<path d="M140.713 104.248V116.536C140.809 117.72 141.737 118.424 143.497 118.648L143.353 121.48C140.825 121.48 138.921 120.84 137.641 119.56C134.761 120.84 131.881 121.48 129.001 121.48C126.793 121.48 125.113 120.856 123.961 119.608C122.809 118.36 122.233 116.568 122.233 114.232C122.233 111.896 122.825 110.184 124.009 109.096C125.193 107.976 127.049 107.288 129.577 107.032L137.113 106.312V104.248C137.113 102.616 136.761 101.448 136.057 100.744C135.353 100.04 134.393 99.688 133.177 99.688C130.617 99.688 127.961 99.848 125.209 100.168L123.721 100.312L123.577 97.576C127.097 96.872 130.217 96.52 132.937 96.52C135.657 96.52 137.625 97.144 138.841 98.392C140.089 99.64 140.713 101.592 140.713 104.248ZM125.929 114.04C125.929 116.984 127.145 118.456 129.577 118.456C131.753 118.456 133.897 118.088 136.009 117.352L137.113 116.968V109.048L130.009 109.72C128.569 109.848 127.529 110.264 126.889 110.968C126.249 111.672 125.929 112.696 125.929 114.04Z" fill="#572FAE"/>
<path d="M147.815 121V97H151.367V100.264C154.151 98.344 157.079 97.08 160.151 96.472V100.12C158.807 100.376 157.399 100.776 155.927 101.32C154.487 101.864 153.383 102.344 152.615 102.76L151.415 103.384V121H147.815Z" fill="#572FAE"/>
<path d="M181.353 104.248V116.536C181.449 117.72 182.377 118.424 184.137 118.648L183.993 121.48C181.465 121.48 179.561 120.84 178.281 119.56C175.401 120.84 172.521 121.48 169.641 121.48C167.433 121.48 165.753 120.856 164.601 119.608C163.449 118.36 162.873 116.568 162.873 114.232C162.873 111.896 163.465 110.184 164.649 109.096C165.833 107.976 167.689 107.288 170.217 107.032L177.753 106.312V104.248C177.753 102.616 177.401 101.448 176.697 100.744C175.993 100.04 175.033 99.688 173.817 99.688C171.257 99.688 168.601 99.848 165.849 100.168L164.361 100.312L164.217 97.576C167.737 96.872 170.857 96.52 173.577 96.52C176.297 96.52 178.265 97.144 179.481 98.392C180.729 99.64 181.353 101.592 181.353 104.248ZM166.569 114.04C166.569 116.984 167.785 118.456 170.217 118.456C172.393 118.456 174.537 118.088 176.649 117.352L177.753 116.968V109.048L170.649 109.72C169.209 109.848 168.169 110.264 167.529 110.968C166.889 111.672 166.569 112.696 166.569 114.04Z" fill="#572FAE"/>
<path d="M200.888 100.12H193.256V111.592C193.256 114.344 193.448 116.152 193.832 117.016C194.248 117.88 195.208 118.312 196.712 118.312L200.984 118.024L201.224 121C199.08 121.352 197.448 121.528 196.328 121.528C193.832 121.528 192.104 120.92 191.144 119.704C190.184 118.488 189.704 116.168 189.704 112.744V100.12H186.296V97H189.704V89.656H193.256V97H200.888V100.12Z" fill="#572FAE"/>
<path d="M208.884 121H205.284V86.536H208.884V98.344C211.444 97.128 213.908 96.52 216.276 96.52C219.476 96.52 221.62 97.384 222.708 99.112C223.828 100.84 224.388 103.912 224.388 108.328V121H220.788V108.424C220.788 105.096 220.452 102.824 219.78 101.608C219.14 100.36 217.764 99.736 215.652 99.736C213.636 99.736 211.684 100.104 209.796 100.84L208.884 101.176V121Z" fill="#572FAE"/>
<path d="M230.009 108.952C230.009 104.568 230.793 101.4 232.361 99.448C233.929 97.496 236.569 96.52 240.281 96.52C244.025 96.52 246.665 97.496 248.201 99.448C249.769 101.4 250.553 104.568 250.553 108.952C250.553 113.336 249.817 116.52 248.345 118.504C246.873 120.488 244.185 121.48 240.281 121.48C236.377 121.48 233.689 120.488 232.217 118.504C230.745 116.52 230.009 113.336 230.009 108.952ZM233.705 108.904C233.705 112.392 234.121 114.84 234.953 116.248C235.817 117.656 237.593 118.36 240.281 118.36C243.001 118.36 244.777 117.672 245.609 116.296C246.441 114.888 246.857 112.424 246.857 108.904C246.857 105.384 246.393 102.968 245.465 101.656C244.537 100.312 242.809 99.64 240.281 99.64C237.785 99.64 236.057 100.312 235.097 101.656C234.169 102.968 233.705 105.384 233.705 108.904Z" fill="#572FAE"/>
<path d="M260.025 121H256.425V97H259.977V98.68C262.569 97.24 265.049 96.52 267.417 96.52C270.617 96.52 272.761 97.384 273.849 99.112C274.969 100.84 275.529 103.912 275.529 108.328V121H271.977V108.424C271.977 105.096 271.641 102.824 270.969 101.608C270.329 100.36 268.937 99.736 266.793 99.736C265.769 99.736 264.681 99.896 263.529 100.216C262.409 100.504 261.545 100.792 260.937 101.08L260.025 101.512V121Z" fill="#572FAE"/>
<path d="M104.144 193.472C100.848 194.144 97.888 194.48 95.264 194.48C92.64 194.48 90.512 194.128 88.88 193.424C87.28 192.688 86.032 191.568 85.136 190.064C84.272 188.528 83.664 186.784 83.312 184.832C82.992 182.848 82.832 180.384 82.832 177.44C82.832 174.496 82.992 172.032 83.312 170.048C83.664 168.032 84.272 166.256 85.136 164.72C86.032 163.184 87.28 162.064 88.88 161.36C90.48 160.656 92.56 160.304 95.12 160.304C97.68 160.304 100.688 160.656 104.144 161.36L104 164.48C100.768 163.904 97.888 163.616 95.36 163.616C91.84 163.616 89.504 164.672 88.352 166.784C87.232 168.864 86.672 172.432 86.672 177.488C86.672 180.016 86.768 182.048 86.96 183.584C87.184 185.12 87.6 186.512 88.208 187.76C88.816 188.976 89.696 189.856 90.848 190.4C92.032 190.912 93.744 191.168 95.984 191.168C98.256 191.168 100.928 190.88 104 190.304L104.144 193.472Z" fill="#572FAE"/>
<path d="M109.853 194V159.536H113.453V194H109.853Z" fill="#572FAE"/>
<path d="M119.619 181.952C119.619 177.568 120.403 174.4 121.971 172.448C123.539 170.496 126.179 169.52 129.891 169.52C133.635 169.52 136.275 170.496 137.811 172.448C139.379 174.4 140.163 177.568 140.163 181.952C140.163 186.336 139.427 189.52 137.955 191.504C136.483 193.488 133.795 194.48 129.891 194.48C125.987 194.48 123.299 193.488 121.827 191.504C120.355 189.52 119.619 186.336 119.619 181.952ZM123.315 181.904C123.315 185.392 123.731 187.84 124.563 189.248C125.427 190.656 127.203 191.36 129.891 191.36C132.611 191.36 134.387 190.672 135.219 189.296C136.051 187.888 136.467 185.424 136.467 181.904C136.467 178.384 136.003 175.968 135.075 174.656C134.147 173.312 132.419 172.64 129.891 172.64C127.395 172.64 125.667 173.312 124.707 174.656C123.779 175.968 123.315 178.384 123.315 181.904Z" fill="#572FAE"/>
<path d="M161.01 170H164.61V194H161.01V192.32C158.61 193.76 156.242 194.48 153.906 194.48C150.642 194.48 148.466 193.632 147.378 191.936C146.322 190.24 145.794 187.104 145.794 182.528V170H149.394V182.48C149.394 185.968 149.698 188.304 150.306 189.488C150.914 190.672 152.29 191.264 154.434 191.264C155.49 191.264 156.562 191.12 157.65 190.832C158.738 190.512 159.57 190.208 160.146 189.92L161.01 189.488V170Z" fill="#572FAE"/>
<path d="M189.966 159.536V194H186.414V192.368C183.95 193.776 181.518 194.48 179.118 194.48C177.838 194.48 176.718 194.32 175.758 194C174.798 193.68 173.902 193.104 173.07 192.272C171.342 190.544 170.478 187.36 170.478 182.72C170.478 178.048 171.246 174.688 172.782 172.64C174.35 170.56 176.926 169.52 180.51 169.52C182.366 169.52 184.334 169.728 186.414 170.144V159.536H189.966ZM175.854 189.68C176.366 190.288 176.91 190.704 177.486 190.928C178.062 191.152 178.798 191.264 179.694 191.264C180.622 191.264 181.646 191.12 182.766 190.832C183.918 190.512 184.814 190.208 185.454 189.92L186.414 189.488V173.216C184.366 172.832 182.462 172.64 180.702 172.64C178.27 172.64 176.574 173.424 175.614 174.992C174.654 176.528 174.174 178.928 174.174 182.192C174.174 185.904 174.734 188.4 175.854 189.68Z" fill="#572FAE"/>
<path fill-rule="evenodd" clip-rule="evenodd" d="M659.547 142.57C658.005 142.57 656.754 143.821 656.754 145.365V202.635C656.754 204.179 658.005 205.43 659.547 205.43H683.338C684.88 205.43 686.13 204.179 686.13 202.635V145.365C686.13 143.821 684.88 142.57 683.338 142.57H659.547ZM654.754 145.365C654.754 142.717 656.9 140.57 659.547 140.57H683.338C685.985 140.57 688.13 142.717 688.13 145.365V202.635C688.13 205.283 685.985 207.43 683.338 207.43H659.547C656.9 207.43 654.754 205.283 654.754 202.635V145.365Z" fill="#572FAE"/>
<path d="M666.788 141.915H676.097V143.295C676.097 143.676 675.788 143.985 675.407 143.985H667.477C667.096 143.985 666.788 143.676 666.788 143.295V141.915Z" fill="#572FAE"/>
<path fill-rule="evenodd" clip-rule="evenodd" d="M665.788 140.915H677.097V143.295C677.097 144.228 676.341 144.985 675.407 144.985H667.477C666.543 144.985 665.788 144.228 665.788 143.295V140.915ZM667.788 142.915V142.985H675.097V142.915H667.788Z" fill="#572FAE"/>
<path d="M667.822 147.09H661.616C660.092 147.09 658.857 148.326 658.857 149.85V156.06C658.857 157.584 660.092 158.82 661.616 158.82H667.822C669.345 158.82 670.58 157.584 670.58 156.06V149.85C670.58 148.326 669.345 147.09 667.822 147.09Z" fill="#22AD30"/>
<path fill-rule="evenodd" clip-rule="evenodd" d="M667.23 151.136C667.425 151.331 667.425 151.648 667.23 151.843L664.298 154.777C664.204 154.871 664.077 154.923 663.944 154.923C663.812 154.923 663.685 154.871 663.591 154.777L662.209 153.394C662.014 153.199 662.014 152.882 662.209 152.687C662.404 152.492 662.721 152.492 662.916 152.687L663.944 153.716L666.523 151.136C666.718 150.941 667.034 150.941 667.23 151.136Z" fill="#EEF0FB"/>
<path d="M667.822 160.54H661.616C660.092 160.54 658.857 161.776 658.857 163.3V169.51C658.857 171.034 660.092 172.27 661.616 172.27H667.822C669.345 172.27 670.58 171.034 670.58 169.51V163.3C670.58 161.776 669.345 160.54 667.822 160.54Z" fill="#22AD30"/>
<path fill-rule="evenodd" clip-rule="evenodd" d="M667.23 164.586C667.425 164.781 667.425 165.098 667.23 165.293L664.298 168.227C664.204 168.321 664.077 168.373 663.944 168.373C663.812 168.373 663.685 168.321 663.591 168.227L662.209 166.844C662.014 166.649 662.014 166.332 662.209 166.137C662.404 165.942 662.721 165.942 662.916 166.137L663.944 167.166L666.523 164.586C666.718 164.391 667.034 164.391 667.23 164.586Z" fill="#EEF0FB"/>
<path d="M681.268 147.09H675.062C673.539 147.09 672.304 148.326 672.304 149.85V156.06C672.304 157.584 673.539 158.82 675.062 158.82H681.268C682.791 158.82 684.026 157.584 684.026 156.06V149.85C684.026 148.326 682.791 147.09 681.268 147.09Z" fill="#DD2A27"/>
<path fill-rule="evenodd" clip-rule="evenodd" d="M676.542 151.331C676.677 151.196 676.895 151.196 677.03 151.331L678.165 152.467L679.301 151.331C679.435 151.196 679.654 151.196 679.788 151.331C679.923 151.466 679.923 151.684 679.788 151.819L678.653 152.955L679.788 154.091C679.923 154.226 679.923 154.444 679.788 154.579C679.654 154.714 679.435 154.714 679.301 154.579L678.165 153.443L677.03 154.579C676.895 154.714 676.677 154.714 676.542 154.579C676.408 154.444 676.408 154.226 676.542 154.091L677.678 152.955L676.542 151.819C676.408 151.684 676.408 151.466 676.542 151.331Z" fill="#EEF0FB"/>
<path d="M681.268 160.545H675.062C673.539 160.545 672.304 161.781 672.304 163.305V169.515C672.304 171.039 673.539 172.275 675.062 172.275H681.268C682.791 172.275 684.026 171.039 684.026 169.515V163.305C684.026 161.781 682.791 160.545 681.268 160.545Z" fill="#22AD30"/>
<path fill-rule="evenodd" clip-rule="evenodd" d="M680.676 164.591C680.872 164.786 680.872 165.103 680.677 165.298L677.745 168.231C677.651 168.325 677.524 168.378 677.391 168.378C677.259 168.378 677.131 168.325 677.038 168.231L675.656 166.849C675.46 166.654 675.46 166.337 675.656 166.142C675.851 165.947 676.168 165.947 676.363 166.142L677.391 167.171L679.969 164.591C680.165 164.396 680.481 164.396 680.676 164.591Z" fill="#EEF0FB"/>
<path d="M681.268 174H675.062C673.539 174 672.304 175.236 672.304 176.76V182.97C672.304 184.494 673.539 185.73 675.062 185.73H681.268C682.791 185.73 684.026 184.494 684.026 182.97V176.76C684.026 175.236 682.791 174 681.268 174Z" fill="#22AD30"/>
<path fill-rule="evenodd" clip-rule="evenodd" d="M680.676 178.046C680.872 178.242 680.872 178.558 680.677 178.753L677.745 181.687C677.651 181.781 677.524 181.834 677.391 181.834C677.259 181.834 677.131 181.781 677.038 181.687L675.656 180.305C675.46 180.109 675.46 179.793 675.656 179.598C675.851 179.402 676.168 179.402 676.363 179.598L677.391 180.626L679.969 178.047C680.165 177.851 680.481 177.851 680.676 178.046Z" fill="#EEF0FB"/>
<path d="M667.822 174H661.616C660.092 174 658.857 175.235 658.857 176.76V182.969C658.857 184.494 660.092 185.729 661.616 185.729H667.822C669.345 185.729 670.58 184.494 670.58 182.969V176.76C670.58 175.235 669.345 174 667.822 174Z" fill="#DD2A27"/>
<path fill-rule="evenodd" clip-rule="evenodd" d="M663.096 178.241C663.23 178.106 663.449 178.106 663.583 178.241L664.719 179.377L665.854 178.241C665.989 178.106 666.207 178.106 666.342 178.241C666.476 178.375 666.476 178.594 666.342 178.729L665.206 179.865L666.342 181.001C666.476 181.135 666.476 181.354 666.342 181.489C666.207 181.623 665.989 181.623 665.854 181.489L664.719 180.352L663.583 181.489C663.449 181.623 663.23 181.623 663.096 181.489C662.961 181.354 662.961 181.135 663.096 181.001L664.231 179.865L663.096 178.729C662.961 178.594 662.961 178.375 663.096 178.241Z" fill="#EEF0FB"/>
<path d="M681.268 187.454H675.062C673.539 187.454 672.304 188.69 672.304 190.214V196.424C672.304 197.948 673.539 199.184 675.062 199.184H681.268C682.791 199.184 684.026 197.948 684.026 196.424V190.214C684.026 188.69 682.791 187.454 681.268 187.454Z" fill="#22AD30"/>
<path fill-rule="evenodd" clip-rule="evenodd" d="M680.676 191.5C680.872 191.696 680.872 192.012 680.677 192.207L677.745 195.141C677.651 195.235 677.524 195.288 677.391 195.288C677.259 195.288 677.131 195.235 677.038 195.141L675.656 193.758C675.46 193.563 675.461 193.246 675.656 193.051C675.851 192.856 676.168 192.856 676.363 193.051L677.391 194.08L679.969 191.501C680.165 191.305 680.481 191.305 680.676 191.5Z" fill="#EEF0FB"/>
<path d="M667.824 187.454H661.618C660.095 187.454 658.86 188.69 658.86 190.214V196.424C658.86 197.948 660.095 199.184 661.618 199.184H667.824C669.348 199.184 670.583 197.948 670.583 196.424V190.214C670.583 188.69 669.348 187.454 667.824 187.454Z" fill="#22AD30"/>
<path fill-rule="evenodd" clip-rule="evenodd" d="M667.227 191.5C667.423 191.696 667.423 192.012 667.227 192.207L664.296 195.141C664.202 195.235 664.075 195.288 663.942 195.288C663.809 195.288 663.682 195.235 663.588 195.141L662.206 193.758C662.011 193.563 662.011 193.246 662.207 193.051C662.402 192.856 662.719 192.856 662.914 193.051L663.942 194.08L666.52 191.501C666.715 191.305 667.032 191.305 667.227 191.5Z" fill="#EEF0FB"/>
<path fill-rule="evenodd" clip-rule="evenodd" d="M617.137 142.57C615.596 142.57 614.345 143.821 614.345 145.365V202.635C614.345 204.179 615.596 205.43 617.137 205.43H640.928C642.47 205.43 643.721 204.179 643.721 202.635V145.365C643.721 143.821 642.47 142.57 640.928 142.57H617.137ZM612.345 145.365C612.345 142.717 614.49 140.57 617.137 140.57H640.928C643.576 140.57 645.721 142.717 645.721 145.365V202.635C645.721 205.283 643.576 207.43 640.928 207.43H617.137C614.49 207.43 612.345 205.283 612.345 202.635V145.365Z" fill="#572FAE"/>
<path d="M624.378 141.915H633.687V143.295C633.687 143.676 633.379 143.985 632.998 143.985H625.068C624.687 143.985 624.378 143.676 624.378 143.295V141.915Z" fill="#572FAE"/>
<path fill-rule="evenodd" clip-rule="evenodd" d="M623.378 140.915H634.687V143.295C634.687 144.228 633.931 144.985 632.998 144.985H625.068C624.134 144.985 623.378 144.228 623.378 143.295V140.915ZM625.378 142.915V142.985H632.687V142.915H625.378Z" fill="#572FAE"/>
<path d="M625.412 147.09H619.206C617.683 147.09 616.448 148.326 616.448 149.85V156.06C616.448 157.584 617.683 158.82 619.206 158.82H625.412C626.935 158.82 628.17 157.584 628.17 156.06V149.85C628.17 148.326 626.935 147.09 625.412 147.09Z" fill="#DD2A27"/>
<path fill-rule="evenodd" clip-rule="evenodd" d="M620.686 151.331C620.821 151.196 621.039 151.196 621.174 151.331L622.309 152.467L623.445 151.331C623.579 151.196 623.798 151.196 623.932 151.331C624.067 151.466 624.067 151.684 623.932 151.819L622.797 152.955L623.932 154.091C624.067 154.226 624.067 154.444 623.932 154.579C623.798 154.714 623.579 154.714 623.445 154.579L622.309 153.443L621.174 154.579C621.039 154.714 620.821 154.714 620.686 154.579C620.552 154.444 620.552 154.226 620.686 154.091L621.822 152.955L620.686 151.819C620.552 151.684 620.552 151.466 620.686 151.331Z" fill="#EEF0FB"/>
<path d="M638.859 160.545H632.653C631.129 160.545 629.895 161.781 629.895 163.305V169.515C629.895 171.039 631.129 172.275 632.653 172.275H638.859C640.382 172.275 641.617 171.039 641.617 169.515V163.305C641.617 161.781 640.382 160.545 638.859 160.545Z" fill="#22AD30"/>
<path fill-rule="evenodd" clip-rule="evenodd" d="M638.267 164.591C638.462 164.786 638.462 165.103 638.267 165.298L635.335 168.231C635.241 168.325 635.114 168.378 634.982 168.378C634.849 168.378 634.722 168.325 634.628 168.231L633.246 166.849C633.051 166.654 633.051 166.337 633.246 166.142C633.441 165.947 633.758 165.947 633.953 166.142L634.981 167.171L637.56 164.591C637.755 164.396 638.071 164.396 638.267 164.591Z" fill="#EEF0FB"/>
<path d="M638.859 147.545H632.653C631.129 147.545 629.895 148.781 629.895 150.305V156.515C629.895 158.039 631.129 159.275 632.653 159.275H638.859C640.382 159.275 641.617 158.039 641.617 156.515V150.305C641.617 148.781 640.382 147.545 638.859 147.545Z" fill="#22AD30"/>
<path fill-rule="evenodd" clip-rule="evenodd" d="M638.267 151.591C638.462 151.786 638.462 152.103 638.267 152.298L635.335 155.231C635.241 155.325 635.114 155.378 634.982 155.378C634.849 155.378 634.722 155.325 634.628 155.231L633.246 153.849C633.051 153.654 633.051 153.337 633.246 153.142C633.441 152.947 633.758 152.947 633.953 153.142L634.981 154.171L637.56 151.591C637.755 151.396 638.071 151.396 638.267 151.591Z" fill="#EEF0FB"/>
<path d="M625.415 160.545H619.209C617.685 160.545 616.45 161.781 616.45 163.305V169.515C616.45 171.039 617.685 172.275 619.209 172.275H625.415C626.938 172.275 628.173 171.039 628.173 169.515V163.305C628.173 161.781 626.938 160.545 625.415 160.545Z" fill="#22AD30"/>
<path fill-rule="evenodd" clip-rule="evenodd" d="M624.817 164.591C625.012 164.786 625.012 165.103 624.817 165.298L621.885 168.231C621.792 168.325 621.664 168.378 621.532 168.378C621.399 168.378 621.272 168.325 621.178 168.231L619.796 166.849C619.601 166.654 619.601 166.337 619.796 166.142C619.992 165.947 620.308 165.947 620.504 166.142L621.532 167.171L624.11 164.591C624.305 164.396 624.622 164.396 624.817 164.591Z" fill="#EEF0FB"/>
<path d="M625.412 174H619.206C617.683 174 616.448 175.235 616.448 176.76V182.969C616.448 184.494 617.683 185.729 619.206 185.729H625.412C626.935 185.729 628.17 184.494 628.17 182.969V176.76C628.17 175.235 626.935 174 625.412 174Z" fill="#22AD30"/>
<path fill-rule="evenodd" clip-rule="evenodd" d="M624.82 178.045C625.016 178.241 625.016 178.557 624.821 178.752L621.889 181.686C621.795 181.78 621.668 181.833 621.535 181.833C621.403 181.833 621.275 181.78 621.182 181.686L619.8 180.304C619.604 180.108 619.605 179.792 619.8 179.596C619.995 179.401 620.312 179.401 620.507 179.597L621.535 180.626L624.113 178.046C624.309 177.85 624.625 177.85 624.82 178.045Z" fill="#EEF0FB"/>
<path d="M638.859 174H632.653C631.129 174 629.895 175.235 629.895 176.76V182.969C629.895 184.494 631.129 185.729 632.653 185.729H638.859C640.382 185.729 641.617 184.494 641.617 182.969V176.76C641.617 175.235 640.382 174 638.859 174Z" fill="#DD2A27"/>
<path fill-rule="evenodd" clip-rule="evenodd" d="M634.133 178.241C634.268 178.106 634.486 178.106 634.621 178.241L635.756 179.377L636.892 178.241C637.026 178.106 637.245 178.106 637.379 178.241C637.514 178.375 637.514 178.594 637.379 178.729L636.244 179.865L637.379 181.001C637.514 181.135 637.514 181.354 637.379 181.489C637.245 181.623 637.026 181.623 636.892 181.489L635.756 180.352L634.621 181.489C634.486 181.623 634.268 181.623 634.133 181.489C633.999 181.354 633.999 181.135 634.133 181.001L635.269 179.865L634.133 178.729C633.999 178.594 633.999 178.375 634.133 178.241Z" fill="#EEF0FB"/>
<path d="M625.412 187.454H619.206C617.683 187.454 616.448 188.69 616.448 190.214V196.424C616.448 197.948 617.683 199.184 619.206 199.184H625.412C626.935 199.184 628.17 197.948 628.17 196.424V190.214C628.17 188.69 626.935 187.454 625.412 187.454Z" fill="#DD2A27"/>
<path fill-rule="evenodd" clip-rule="evenodd" d="M620.686 191.695C620.821 191.561 621.039 191.561 621.174 191.695L622.309 192.831L623.445 191.695C623.579 191.561 623.798 191.561 623.932 191.695C624.067 191.83 624.067 192.049 623.932 192.183L622.797 193.319L623.932 194.455C624.067 194.59 624.067 194.809 623.932 194.943C623.798 195.078 623.579 195.078 623.445 194.943L622.309 193.807L621.174 194.943C621.039 195.078 620.821 195.078 620.686 194.943C620.552 194.809 620.552 194.59 620.686 194.455L621.822 193.319L620.686 192.183C620.552 192.049 620.552 191.83 620.686 191.695Z" fill="#EEF0FB"/>
<path d="M638.859 187.454H632.653C631.129 187.454 629.895 188.69 629.895 190.214V196.424C629.895 197.948 631.129 199.184 632.653 199.184H638.859C640.382 199.184 641.617 197.948 641.617 196.424V190.214C641.617 188.69 640.382 187.454 638.859 187.454Z" fill="#22AD30"/>
<path fill-rule="evenodd" clip-rule="evenodd" d="M638.267 191.5C638.462 191.696 638.462 192.012 638.267 192.207L635.335 195.141C635.241 195.235 635.114 195.288 634.981 195.288C634.849 195.288 634.722 195.235 634.628 195.141L633.246 193.758C633.051 193.563 633.051 193.246 633.246 193.051C633.441 192.856 633.758 192.856 633.953 193.051L634.982 194.08L637.56 191.501C637.755 191.305 638.071 191.305 638.267 191.5Z" fill="#EEF0FB"/>
<path fill-rule="evenodd" clip-rule="evenodd" d="M619.068 220.26C620.442 218.705 622.417 217.815 624.492 217.815H675.917C677.977 217.815 679.939 218.693 681.313 220.229L686.763 226.325C687.257 226.877 687.476 227.529 687.472 228.167V240.242C687.462 241.658 686.352 243 684.708 243H615.764C614.123 243 613.013 241.662 613 240.248L613 228.16C612.997 227.53 613.213 226.885 613.697 226.336L619.068 220.26ZM675.917 218.505H624.492C622.615 218.505 620.828 219.311 619.584 220.717L614.214 226.794C613.033 228.13 613.981 230.235 615.764 230.235H684.708C686.496 230.235 687.442 228.118 686.25 226.785L680.799 220.689C679.556 219.299 677.78 218.505 675.917 218.505ZM615.764 230.925H684.708C685.575 230.925 686.294 230.552 686.781 229.991V240.242C686.773 241.304 685.94 242.31 684.708 242.31H615.764C614.534 242.31 613.701 241.308 613.691 240.248L613.687 229.986C614.174 230.549 614.894 230.925 615.764 230.925Z" fill="#572FAE"/>
<path fill-rule="evenodd" clip-rule="evenodd" d="M687.436 227.711C687.356 227.225 687.14 226.746 686.764 226.325C686.764 226.325 686.764 226.325 686.764 226.325L681.313 220.229C679.94 218.693 677.977 217.815 675.917 217.815H624.492C622.417 217.815 620.442 218.705 619.068 220.26L613.697 226.336C613.33 226.753 613.116 227.226 613.037 227.705C613.011 227.857 612.999 228.009 613 228.16L613 240.248C613 240.248 613 240.248 613 240.248C613 240.25 613 240.252 613 240.255C613.016 241.667 614.126 243 615.764 243H684.708C686.35 243 687.459 241.662 687.472 240.248C687.472 240.246 687.472 240.244 687.472 240.242V228.167C687.473 228.016 687.461 227.863 687.436 227.711ZM686.472 229.248C686.611 229.019 686.706 228.764 686.751 228.5C686.77 228.39 686.78 228.279 686.781 228.167C686.781 228.166 686.781 228.164 686.781 228.163C686.783 227.686 686.619 227.198 686.25 226.785L680.799 220.689C679.556 219.299 677.78 218.505 675.917 218.505H624.492C622.615 218.505 620.828 219.31 619.585 220.717L614.214 226.793C613.852 227.203 613.69 227.686 613.691 228.158C613.691 228.158 613.691 228.159 613.691 228.16C613.691 228.273 613.701 228.385 613.719 228.495C613.764 228.761 613.86 229.018 614 229.248C614.061 229.349 614.131 229.445 614.209 229.534C614.574 229.955 615.114 230.235 615.764 230.235H684.708C685.356 230.235 685.894 229.957 686.259 229.538C686.338 229.447 686.409 229.35 686.472 229.248ZM614.687 230.713C614.434 230.607 614.203 230.465 614 230.295C613.887 230.2 613.782 230.096 613.687 229.986L613.691 240.248C613.701 241.308 614.534 242.31 615.764 242.31H684.708C685.94 242.31 686.773 241.304 686.781 240.242V229.991C686.686 230.1 686.583 230.202 686.472 230.295C686.267 230.466 686.036 230.609 685.781 230.715C685.458 230.849 685.098 230.925 684.708 230.925H615.764C615.372 230.925 615.011 230.849 614.687 230.713Z" fill="#572FAE"/>
<path d="M654.242 222.244C654.469 221.965 654.394 221.404 654.036 221.372C653.287 221.304 652.504 221.265 651.614 221.265C646.853 221.265 642.994 222.269 642.994 223.508C642.994 224.746 646.853 225.75 651.614 225.75C653.793 225.75 655.735 225.54 657.229 225.193C657.579 225.111 657.544 224.644 657.192 224.57C655.236 224.16 654.028 223.527 654.028 222.818C654.028 222.618 654.094 222.426 654.242 222.244Z" fill="#572FAE"/>
<path fill-rule="evenodd" clip-rule="evenodd" d="M654.242 222.244C654.469 221.965 654.394 221.404 654.036 221.372C653.287 221.304 652.504 221.265 651.614 221.265C646.853 221.265 642.994 222.269 642.994 223.508C642.994 224.746 646.853 225.75 651.614 225.75C653.357 225.75 654.949 225.615 656.28 225.384C656.396 225.364 656.51 225.343 656.622 225.321C656.769 225.293 656.913 225.263 657.053 225.233C657.053 225.233 657.053 225.233 657.053 225.233C657.112 225.22 657.171 225.206 657.229 225.193C657.579 225.111 657.544 224.644 657.192 224.57C657.154 224.562 657.116 224.554 657.079 224.546C657.079 224.546 657.079 224.546 657.078 224.546C656.928 224.514 656.783 224.48 656.642 224.444C656.533 224.417 656.427 224.389 656.324 224.36C654.885 223.958 654.028 223.415 654.028 222.818C654.028 222.618 654.094 222.426 654.242 222.244ZM654.306 224.633C653.732 224.302 653.028 223.725 653.028 222.818C653.028 222.641 653.052 222.47 653.099 222.305C652.633 222.279 652.144 222.265 651.614 222.265C649.293 222.265 647.227 222.511 645.771 222.89C645.035 223.081 644.511 223.292 644.195 223.486C644.184 223.494 644.172 223.501 644.162 223.508C644.172 223.514 644.184 223.521 644.195 223.529C644.511 223.723 645.035 223.934 645.771 224.125C647.227 224.504 649.293 224.75 651.614 224.75C652.57 224.75 653.473 224.708 654.306 224.633ZM643.955 223.341C643.955 223.341 643.957 223.343 643.96 223.348C643.956 223.343 643.955 223.341 643.955 223.341ZM643.96 223.667C643.957 223.672 643.955 223.674 643.955 223.674C643.955 223.674 643.956 223.672 643.96 223.667ZM653.466 221.613L653.466 221.613Z" fill="#572FAE"/>
<path fill-rule="evenodd" clip-rule="evenodd" d="M674.37 239.17C674.352 239.17 674.336 239.185 674.336 239.205C674.336 239.225 674.352 239.24 674.37 239.24C674.389 239.24 674.405 239.225 674.405 239.205C674.405 239.185 674.389 239.17 674.37 239.17ZM672.336 239.205C672.336 238.082 673.246 237.17 674.37 237.17C675.494 237.17 676.405 238.082 676.405 239.205C676.405 240.328 675.494 241.24 674.37 241.24C673.246 241.24 672.336 240.328 672.336 239.205Z" fill="#572FAE"/>
<path fill-rule="evenodd" clip-rule="evenodd" d="M702.646 142.57C701.104 142.57 699.853 143.821 699.853 145.365V202.635C699.853 204.179 701.104 205.43 702.646 205.43H726.436C727.978 205.43 729.229 204.179 729.229 202.635V145.365C729.229 143.821 727.978 142.57 726.436 142.57H702.646ZM697.853 145.365C697.853 142.717 699.998 140.57 702.646 140.57H726.436C729.084 140.57 731.229 142.717 731.229 145.365V202.635C731.229 205.283 729.084 207.43 726.436 207.43H702.646C699.998 207.43 697.853 205.283 697.853 202.635V145.365Z" fill="#572FAE"/>
<path d="M709.886 141.915H719.196V143.295C719.196 143.676 718.887 143.985 718.506 143.985H710.576C710.195 143.985 709.886 143.676 709.886 143.295V141.915Z" fill="#572FAE"/>
<path fill-rule="evenodd" clip-rule="evenodd" d="M708.886 140.915H720.196V143.295C720.196 144.228 719.44 144.985 718.506 144.985H710.576C709.642 144.985 708.886 144.228 708.886 143.295V140.915ZM710.886 142.915V142.985H718.196V142.915H710.886Z" fill="#572FAE"/>
<path d="M710.92 147.09H704.714C703.191 147.09 701.956 148.326 701.956 149.85V156.06C701.956 157.584 703.191 158.82 704.714 158.82H710.92C712.444 158.82 713.679 157.584 713.679 156.06V149.85C713.679 148.326 712.444 147.09 710.92 147.09Z" fill="#22AD30"/>
<path fill-rule="evenodd" clip-rule="evenodd" d="M710.329 151.136C710.524 151.331 710.524 151.648 710.329 151.843L707.397 154.777C707.303 154.871 707.176 154.923 707.044 154.923C706.911 154.923 706.784 154.871 706.69 154.777L705.308 153.394C705.113 153.199 705.113 152.882 705.308 152.687C705.503 152.492 705.82 152.492 706.015 152.687L707.044 153.716L709.622 151.136C709.817 150.941 710.133 150.941 710.329 151.136Z" fill="#EEF0FB"/>
<path d="M710.92 160.54H704.714C703.191 160.54 701.956 161.776 701.956 163.3V169.51C701.956 171.034 703.191 172.27 704.714 172.27H710.92C712.444 172.27 713.679 171.034 713.679 169.51V163.3C713.679 161.776 712.444 160.54 710.92 160.54Z" fill="#22AD30"/>
<path fill-rule="evenodd" clip-rule="evenodd" d="M710.329 164.586C710.524 164.781 710.524 165.098 710.329 165.293L707.397 168.227C707.303 168.321 707.176 168.373 707.044 168.373C706.911 168.373 706.784 168.321 706.69 168.227L705.308 166.844C705.113 166.649 705.113 166.332 705.308 166.137C705.503 165.942 705.82 165.942 706.015 166.137L707.044 167.166L709.622 164.586C709.817 164.391 710.133 164.391 710.329 164.586Z" fill="#EEF0FB"/>
<path d="M724.367 147.09H718.161C716.638 147.09 715.403 148.326 715.403 149.85V156.06C715.403 157.584 716.638 158.82 718.161 158.82H724.367C725.891 158.82 727.126 157.584 727.126 156.06V149.85C727.126 148.326 725.891 147.09 724.367 147.09Z" fill="#22AD30"/>
<path fill-rule="evenodd" clip-rule="evenodd" d="M723.776 151.136C723.971 151.331 723.971 151.648 723.776 151.843L720.844 154.777C720.75 154.871 720.623 154.923 720.49 154.923C720.358 154.923 720.23 154.871 720.137 154.777L718.755 153.394C718.56 153.199 718.56 152.882 718.755 152.687C718.95 152.492 719.267 152.492 719.462 152.687L720.49 153.716L723.068 151.136C723.264 150.941 723.58 150.941 723.776 151.136Z" fill="#EEF0FB"/>
<path d="M724.367 160.54H718.161C716.638 160.54 715.403 161.776 715.403 163.3V169.51C715.403 171.034 716.638 172.27 718.161 172.27H724.367C725.891 172.27 727.126 171.034 727.126 169.51V163.3C727.126 161.776 725.891 160.54 724.367 160.54Z" fill="#22AD30"/>
<path fill-rule="evenodd" clip-rule="evenodd" d="M723.776 164.586C723.971 164.781 723.971 165.098 723.776 165.293L720.844 168.227C720.75 168.321 720.623 168.373 720.49 168.373C720.358 168.373 720.23 168.321 720.137 168.227L718.755 166.844C718.56 166.649 718.56 166.332 718.755 166.137C718.95 165.942 719.267 165.942 719.462 166.137L720.49 167.166L723.068 164.586C723.264 164.391 723.58 164.391 723.776 164.586Z" fill="#EEF0FB"/>
<path d="M724.367 174H718.161C716.638 174 715.403 175.236 715.403 176.76V182.97C715.403 184.494 716.638 185.73 718.161 185.73H724.367C725.891 185.73 727.126 184.494 727.126 182.97V176.76C727.126 175.236 725.891 174 724.367 174Z" fill="#22AD30"/>
<path fill-rule="evenodd" clip-rule="evenodd" d="M723.776 178.046C723.971 178.242 723.971 178.558 723.776 178.753L720.844 181.687C720.75 181.781 720.623 181.834 720.49 181.834C720.358 181.834 720.23 181.781 720.137 181.687L718.755 180.304C718.56 180.109 718.56 179.792 718.755 179.597C718.95 179.402 719.267 179.402 719.462 179.597L720.49 180.626L723.068 178.047C723.264 177.851 723.58 177.851 723.776 178.046Z" fill="#EEF0FB"/>
<path d="M710.92 174H704.714C703.191 174 701.956 175.235 701.956 176.76V182.969C701.956 184.494 703.191 185.729 704.714 185.729H710.92C712.444 185.729 713.679 184.494 713.679 182.969V176.76C713.679 175.235 712.444 174 710.92 174Z" fill="#22AD30"/>
<path fill-rule="evenodd" clip-rule="evenodd" d="M710.329 178.045C710.524 178.241 710.524 178.557 710.329 178.752L707.397 181.686C707.303 181.78 707.176 181.833 707.044 181.833C706.911 181.833 706.784 181.78 706.69 181.686L705.308 180.304C705.113 180.108 705.113 179.792 705.308 179.597C705.503 179.401 705.82 179.401 706.015 179.597L707.044 180.626L709.622 178.046C709.817 177.85 710.133 177.85 710.329 178.045Z" fill="#EEF0FB"/>
<path d="M710.92 187.45H704.714C703.191 187.45 701.956 188.686 701.956 190.21V196.42C701.956 197.944 703.191 199.18 704.714 199.18H710.92C712.444 199.18 713.679 197.944 713.679 196.42V190.21C713.679 188.686 712.444 187.45 710.92 187.45Z" fill="#22AD30"/>
<path fill-rule="evenodd" clip-rule="evenodd" d="M710.329 191.496C710.524 191.691 710.524 192.008 710.329 192.203L707.397 195.137C707.303 195.231 707.176 195.284 707.044 195.284C706.911 195.284 706.784 195.231 706.69 195.137L705.308 193.755C705.113 193.559 705.113 193.243 705.308 193.047C705.503 192.852 705.82 192.852 706.015 193.048L707.044 194.077L709.622 191.497C709.817 191.301 710.133 191.301 710.329 191.496Z" fill="#EEF0FB"/>
<path d="M724.367 187.454H718.161C716.638 187.454 715.403 188.69 715.403 190.214V196.424C715.403 197.948 716.638 199.184 718.161 199.184H724.367C725.891 199.184 727.126 197.948 727.126 196.424V190.214C727.126 188.69 725.891 187.454 724.367 187.454Z" fill="#DD2A27"/>
<path fill-rule="evenodd" clip-rule="evenodd" d="M719.641 191.695C719.776 191.561 719.994 191.561 720.129 191.695L721.264 192.831L722.4 191.695C722.535 191.561 722.753 191.561 722.887 191.695C723.022 191.83 723.022 192.049 722.887 192.183L721.752 193.319L722.887 194.455C723.022 194.59 723.022 194.809 722.887 194.943C722.753 195.078 722.535 195.078 722.4 194.943L721.264 193.807L720.129 194.943C719.994 195.078 719.776 195.078 719.641 194.943C719.507 194.809 719.507 194.59 719.641 194.455L720.777 193.319L719.641 192.183C719.507 192.049 719.507 191.83 719.641 191.695Z" fill="#EEF0FB"/>
<path fill-rule="evenodd" clip-rule="evenodd" d="M745.055 142.57C743.514 142.57 742.263 143.821 742.263 145.365V202.635C742.263 204.179 743.514 205.43 745.055 205.43H768.846C770.388 205.43 771.639 204.179 771.639 202.635V145.365C771.639 143.821 770.388 142.57 768.846 142.57H745.055ZM740.263 145.365C740.263 142.717 742.408 140.57 745.055 140.57H768.846C771.494 140.57 773.639 142.717 773.639 145.365V202.635C773.639 205.283 771.494 207.43 768.846 207.43H745.055C742.408 207.43 740.263 205.283 740.263 202.635V145.365Z" fill="#572FAE"/>
<path d="M752.296 141.915H761.605V143.295C761.605 143.676 761.297 143.985 760.916 143.985H752.985C752.604 143.985 752.296 143.676 752.296 143.295V141.915Z" fill="#572FAE"/>
<path fill-rule="evenodd" clip-rule="evenodd" d="M751.296 140.915H762.605V143.295C762.605 144.228 761.85 144.985 760.916 144.985H752.985C752.052 144.985 751.296 144.228 751.296 143.295V140.915ZM753.296 142.915V142.985H760.605V142.915H753.296Z" fill="#572FAE"/>
<path d="M753.33 147.09H747.124C745.601 147.09 744.366 148.326 744.366 149.85V156.06C744.366 157.584 745.601 158.82 747.124 158.82H753.33C754.853 158.82 756.088 157.584 756.088 156.06V149.85C756.088 148.326 754.853 147.09 753.33 147.09Z" fill="#22AD30"/>
<path fill-rule="evenodd" clip-rule="evenodd" d="M752.738 151.136C752.933 151.331 752.933 151.648 752.738 151.843L749.806 154.777C749.713 154.871 749.585 154.923 749.453 154.923C749.32 154.923 749.193 154.871 749.099 154.777L747.717 153.394C747.522 153.199 747.522 152.882 747.717 152.687C747.913 152.492 748.229 152.492 748.424 152.687L749.453 153.716L752.031 151.136C752.226 150.941 752.543 150.941 752.738 151.136Z" fill="#EEF0FB"/>
<path d="M753.33 160.54H747.124C745.601 160.54 744.366 161.776 744.366 163.3V169.51C744.366 171.034 745.601 172.27 747.124 172.27H753.33C754.853 172.27 756.088 171.034 756.088 169.51V163.3C756.088 161.776 754.853 160.54 753.33 160.54Z" fill="#22AD30"/>
<path fill-rule="evenodd" clip-rule="evenodd" d="M752.738 164.586C752.933 164.781 752.933 165.098 752.738 165.293L749.806 168.227C749.713 168.321 749.585 168.373 749.453 168.373C749.32 168.373 749.193 168.321 749.099 168.227L747.717 166.844C747.522 166.649 747.522 166.332 747.717 166.137C747.913 165.942 748.229 165.942 748.424 166.137L749.453 167.166L752.031 164.586C752.226 164.391 752.543 164.391 752.738 164.586Z" fill="#EEF0FB"/>
<path d="M753.33 174H747.124C745.601 174 744.366 175.236 744.366 176.76V182.97C744.366 184.494 745.601 185.73 747.124 185.73H753.33C754.853 185.73 756.088 184.494 756.088 182.97V176.76C756.088 175.236 754.853 174 753.33 174Z" fill="#22AD30"/>
<path fill-rule="evenodd" clip-rule="evenodd" d="M752.738 178.046C752.933 178.242 752.933 178.558 752.738 178.753L749.806 181.687C749.713 181.781 749.585 181.834 749.453 181.834C749.32 181.834 749.193 181.781 749.099 181.687L747.717 180.304C747.522 180.109 747.522 179.792 747.717 179.597C747.913 179.402 748.229 179.402 748.424 179.597L749.453 180.626L752.031 178.047C752.226 177.851 752.543 177.851 752.738 178.046Z" fill="#EEF0FB"/>
<path d="M766.776 147.09H760.57C759.047 147.09 757.812 148.326 757.812 149.85V156.06C757.812 157.584 759.047 158.82 760.57 158.82H766.776C768.3 158.82 769.535 157.584 769.535 156.06V149.85C769.535 148.326 768.3 147.09 766.776 147.09Z" fill="#DD2A27"/>
<path fill-rule="evenodd" clip-rule="evenodd" d="M762.051 151.331C762.185 151.196 762.404 151.196 762.538 151.331L763.673 152.467L764.809 151.331C764.944 151.196 765.162 151.196 765.296 151.331C765.431 151.466 765.431 151.684 765.296 151.819L764.161 152.955L765.296 154.091C765.431 154.226 765.431 154.444 765.296 154.579C765.162 154.714 764.944 154.714 764.809 154.579L763.673 153.443L762.538 154.579C762.404 154.714 762.185 154.714 762.051 154.579C761.916 154.444 761.916 154.226 762.051 154.091L763.186 152.955L762.051 151.819C761.916 151.684 761.916 151.466 762.051 151.331Z" fill="#EEF0FB"/>
<path d="M766.776 174H760.57C759.047 174 757.812 175.235 757.812 176.76V182.969C757.812 184.494 759.047 185.729 760.57 185.729H766.776C768.3 185.729 769.535 184.494 769.535 182.969V176.76C769.535 175.235 768.3 174 766.776 174Z" fill="#22AD30"/>
<path fill-rule="evenodd" clip-rule="evenodd" d="M766.185 178.045C766.38 178.241 766.38 178.557 766.185 178.752L763.253 181.686C763.159 181.78 763.032 181.833 762.9 181.833C762.767 181.833 762.64 181.78 762.546 181.686L761.164 180.304C760.969 180.108 760.969 179.792 761.164 179.597C761.359 179.401 761.676 179.401 761.871 179.597L762.899 180.626L765.478 178.046C765.673 177.85 765.989 177.85 766.185 178.045Z" fill="#EEF0FB"/>
<path d="M766.776 160.54H760.57C759.047 160.54 757.812 161.776 757.812 163.3V169.51C757.812 171.034 759.047 172.27 760.57 172.27H766.776C768.3 172.27 769.535 171.034 769.535 169.51V163.3C769.535 161.776 768.3 160.54 766.776 160.54Z" fill="#22AD30"/>
<path fill-rule="evenodd" clip-rule="evenodd" d="M766.185 164.586C766.38 164.781 766.38 165.098 766.185 165.293L763.253 168.227C763.159 168.321 763.032 168.374 762.9 168.374C762.767 168.374 762.64 168.321 762.546 168.227L761.164 166.845C760.969 166.649 760.969 166.333 761.164 166.137C761.359 165.942 761.676 165.942 761.871 166.138L762.899 167.166L765.478 164.587C765.673 164.391 765.989 164.391 766.185 164.586Z" fill="#EEF0FB"/>
<path d="M753.33 187.454H747.124C745.601 187.454 744.366 188.69 744.366 190.214V196.424C744.366 197.948 745.601 199.184 747.124 199.184H753.33C754.853 199.184 756.088 197.948 756.088 196.424V190.214C756.088 188.69 754.853 187.454 753.33 187.454Z" fill="#22AD30"/>
<path fill-rule="evenodd" clip-rule="evenodd" d="M752.738 191.5C752.933 191.696 752.933 192.012 752.738 192.207L749.806 195.141C749.713 195.235 749.585 195.288 749.453 195.288C749.32 195.288 749.193 195.235 749.099 195.141L747.717 193.758C747.522 193.563 747.522 193.246 747.717 193.051C747.913 192.856 748.229 192.856 748.424 193.051L749.453 194.08L752.031 191.501C752.226 191.305 752.543 191.305 752.738 191.5Z" fill="#EEF0FB"/>
<path d="M766.776 187.454H760.57C759.047 187.454 757.812 188.69 757.812 190.214V196.424C757.812 197.948 759.047 199.184 760.57 199.184H766.776C768.3 199.184 769.535 197.948 769.535 196.424V190.214C769.535 188.69 768.3 187.454 766.776 187.454Z" fill="#DD2A27"/>
<path fill-rule="evenodd" clip-rule="evenodd" d="M762.051 191.695C762.185 191.561 762.404 191.561 762.538 191.695L763.673 192.831L764.809 191.695C764.944 191.561 765.162 191.561 765.296 191.695C765.431 191.83 765.431 192.049 765.296 192.183L764.161 193.319L765.296 194.455C765.431 194.59 765.431 194.809 765.296 194.943C765.162 195.078 764.944 195.078 764.809 194.943L763.673 193.807L762.538 194.943C762.404 195.078 762.185 195.078 762.051 194.943C761.916 194.809 761.916 194.59 762.051 194.455L763.186 193.319L762.051 192.183C761.916 192.049 761.916 191.83 762.051 191.695Z" fill="#EEF0FB"/>
<path fill-rule="evenodd" clip-rule="evenodd" d="M704.576 220.26C705.95 218.705 707.925 217.815 710 217.815H761.425C763.485 217.815 765.448 218.693 766.821 220.229L772.272 226.325C772.765 226.877 772.984 227.529 772.98 228.167V240.242C772.97 241.658 771.86 243 770.216 243H701.272C699.631 243 698.521 241.662 698.508 240.248V228.16C698.506 227.53 698.721 226.885 699.206 226.336L704.576 220.26ZM761.425 218.505H710C708.123 218.505 706.336 219.311 705.093 220.717L699.722 226.794C698.541 228.13 699.49 230.235 701.272 230.235H770.216C772.004 230.235 772.95 228.118 771.758 226.785L766.307 220.689C765.064 219.299 763.289 218.505 761.425 218.505ZM701.272 230.925H770.216C771.083 230.925 771.802 230.552 772.289 229.991V240.242C772.281 241.304 771.449 242.31 770.216 242.31H701.272C700.042 242.31 699.21 241.308 699.199 240.248L699.195 229.986C699.682 230.549 700.403 230.925 701.272 230.925Z" fill="#572FAE"/>
<path fill-rule="evenodd" clip-rule="evenodd" d="M772.944 227.711C772.864 227.225 772.648 226.746 772.272 226.325C772.272 226.325 772.272 226.325 772.272 226.325L766.822 220.229C765.448 218.693 763.485 217.815 761.425 217.815H710C707.925 217.815 705.95 218.705 704.576 220.26L699.206 226.336C698.838 226.753 698.625 227.226 698.545 227.705C698.52 227.857 698.508 228.009 698.508 228.16V240.248C698.508 240.248 698.508 240.248 698.508 240.248C698.508 240.25 698.508 240.252 698.508 240.255C698.524 241.667 699.634 243 701.272 243H770.216C771.858 243 772.967 241.662 772.98 240.248C772.98 240.246 772.98 240.244 772.98 240.242V228.167C772.981 228.016 772.969 227.863 772.944 227.711ZM771.98 229.248C772.119 229.019 772.214 228.764 772.259 228.5C772.278 228.39 772.288 228.279 772.289 228.167C772.289 228.166 772.289 228.164 772.289 228.163C772.291 227.686 772.127 227.198 771.758 226.785L766.307 220.689C765.065 219.299 763.289 218.505 761.425 218.505H710C708.123 218.505 706.336 219.31 705.093 220.717L699.723 226.793C699.36 227.203 699.198 227.686 699.199 228.157C699.199 228.158 699.199 228.159 699.199 228.16C699.2 228.273 699.209 228.385 699.228 228.495C699.272 228.761 699.368 229.018 699.508 229.248C699.57 229.349 699.64 229.445 699.717 229.534C700.083 229.955 700.622 230.235 701.272 230.235H770.216C770.864 230.235 771.402 229.957 771.767 229.538C771.846 229.447 771.918 229.35 771.98 229.248ZM700.195 230.713C699.942 230.607 699.712 230.465 699.508 230.294C699.395 230.2 699.291 230.096 699.195 229.986L699.199 240.248C699.21 241.308 700.042 242.31 701.272 242.31H770.216C771.449 242.31 772.281 241.304 772.289 240.242V229.991C772.194 230.1 772.091 230.202 771.98 230.295C771.776 230.466 771.544 230.609 771.289 230.715C770.966 230.849 770.606 230.925 770.216 230.925H701.272C700.88 230.925 700.519 230.849 700.195 230.713Z" fill="#572FAE"/>
<path d="M739.75 222.244C739.977 221.965 739.903 221.404 739.545 221.372C738.795 221.304 738.012 221.265 737.122 221.265C732.362 221.265 728.502 222.269 728.502 223.508C728.502 224.746 732.362 225.75 737.122 225.75C739.301 225.75 741.243 225.54 742.737 225.193C743.087 225.111 743.052 224.644 742.7 224.57C740.744 224.16 739.536 223.527 739.536 222.818C739.536 222.618 739.602 222.426 739.75 222.244Z" fill="#572FAE"/>
<path fill-rule="evenodd" clip-rule="evenodd" d="M739.75 222.244C739.977 221.965 739.903 221.404 739.545 221.372C738.795 221.304 738.012 221.265 737.122 221.265C732.362 221.265 728.502 222.269 728.502 223.508C728.502 224.746 732.362 225.75 737.122 225.75C738.865 225.75 740.457 225.615 741.789 225.384C741.905 225.364 742.019 225.343 742.131 225.321C742.278 225.293 742.421 225.263 742.561 225.233C742.561 225.233 742.561 225.233 742.561 225.233C742.621 225.22 742.679 225.206 742.737 225.193C743.087 225.111 743.052 224.644 742.7 224.57C742.662 224.562 742.625 224.554 742.587 224.546C742.587 224.546 742.587 224.546 742.587 224.546C742.437 224.514 742.291 224.48 742.151 224.444C742.042 224.417 741.935 224.389 741.832 224.36C740.393 223.958 739.536 223.415 739.536 222.818C739.536 222.618 739.602 222.426 739.75 222.244ZM739.814 224.633C739.241 224.302 738.536 223.725 738.536 222.818C738.536 222.641 738.56 222.47 738.608 222.305C738.141 222.279 737.652 222.265 737.122 222.265C734.802 222.265 732.735 222.511 731.279 222.89C730.543 223.081 730.02 223.292 729.704 223.486C729.692 223.494 729.681 223.501 729.67 223.508C729.681 223.514 729.692 223.521 729.704 223.529C730.02 223.723 730.543 223.934 731.279 224.125C732.735 224.504 734.802 224.75 737.122 224.75C738.078 224.75 738.982 224.708 739.814 224.633ZM729.463 223.341C729.464 223.341 729.466 223.343 729.469 223.348C729.465 223.343 729.463 223.341 729.463 223.341ZM729.469 223.667C729.466 223.672 729.464 223.674 729.463 223.674C729.463 223.674 729.465 223.672 729.469 223.667ZM738.975 221.613L738.975 221.613Z" fill="#572FAE"/>
<path fill-rule="evenodd" clip-rule="evenodd" d="M759.879 239.17C759.86 239.17 759.844 239.185 759.844 239.205C759.844 239.225 759.86 239.24 759.879 239.24C759.897 239.24 759.913 239.225 759.913 239.205C759.913 239.185 759.897 239.17 759.879 239.17ZM757.844 239.205C757.844 238.082 758.754 237.17 759.879 237.17C761.003 237.17 761.913 238.082 761.913 239.205C761.913 240.328 761.003 241.24 759.879 241.24C758.754 241.24 757.844 240.328 757.844 239.205Z" fill="#572FAE"/>
<path fill-rule="evenodd" clip-rule="evenodd" d="M830.564 142.57C829.022 142.57 827.771 143.821 827.771 145.365V202.635C827.771 204.179 829.022 205.43 830.564 205.43H854.354C855.896 205.43 857.147 204.179 857.147 202.635V145.365C857.147 143.821 855.896 142.57 854.354 142.57H830.564ZM825.771 145.365C825.771 142.717 827.916 140.57 830.564 140.57H854.354C857.002 140.57 859.147 142.717 859.147 145.365V202.635C859.147 205.283 857.002 207.43 854.354 207.43H830.564C827.916 207.43 825.771 205.283 825.771 202.635V145.365Z" fill="#572FAE"/>
<path d="M837.804 141.915H847.114V143.295C847.114 143.676 846.805 143.985 846.424 143.985H838.494C838.113 143.985 837.804 143.676 837.804 143.295V141.915Z" fill="#572FAE"/>
<path fill-rule="evenodd" clip-rule="evenodd" d="M836.804 140.915H848.114V143.295C848.114 144.228 847.358 144.985 846.424 144.985H838.494C837.56 144.985 836.804 144.228 836.804 143.295V140.915ZM838.804 142.915V142.985H846.114V142.915H838.804Z" fill="#572FAE"/>
<path d="M838.838 147.09H832.632C831.109 147.09 829.874 148.326 829.874 149.85V156.06C829.874 157.584 831.109 158.82 832.632 158.82H838.838C840.362 158.82 841.597 157.584 841.597 156.06V149.85C841.597 148.326 840.362 147.09 838.838 147.09Z" fill="#22AD30"/>
<path fill-rule="evenodd" clip-rule="evenodd" d="M838.246 151.136C838.442 151.331 838.442 151.648 838.246 151.843L835.315 154.777C835.221 154.871 835.094 154.923 834.961 154.923C834.828 154.923 834.701 154.871 834.607 154.777L833.225 153.394C833.03 153.199 833.03 152.882 833.226 152.687C833.421 152.492 833.738 152.492 833.933 152.687L834.961 153.716L837.539 151.136C837.734 150.941 838.051 150.941 838.246 151.136Z" fill="#EEF0FB"/>
<path d="M838.838 160.54H832.632C831.109 160.54 829.874 161.776 829.874 163.3V169.51C829.874 171.034 831.109 172.27 832.632 172.27H838.838C840.362 172.27 841.597 171.034 841.597 169.51V163.3C841.597 161.776 840.362 160.54 838.838 160.54Z" fill="#22AD30"/>
<path fill-rule="evenodd" clip-rule="evenodd" d="M838.246 164.586C838.442 164.781 838.442 165.098 838.246 165.293L835.315 168.227C835.221 168.321 835.094 168.373 834.961 168.373C834.828 168.373 834.701 168.321 834.607 168.227L833.225 166.844C833.03 166.649 833.03 166.332 833.226 166.137C833.421 165.942 833.738 165.942 833.933 166.137L834.961 167.166L837.539 164.586C837.734 164.391 838.051 164.391 838.246 164.586Z" fill="#EEF0FB"/>
<path d="M852.285 147.09H846.079C844.555 147.09 843.32 148.326 843.32 149.85V156.06C843.32 157.584 844.555 158.82 846.079 158.82H852.285C853.808 158.82 855.043 157.584 855.043 156.06V149.85C855.043 148.326 853.808 147.09 852.285 147.09Z" fill="#22AD30"/>
<path fill-rule="evenodd" clip-rule="evenodd" d="M851.693 151.136C851.888 151.331 851.888 151.648 851.693 151.843L848.761 154.777C848.668 154.871 848.54 154.923 848.408 154.923C848.275 154.923 848.148 154.871 848.054 154.777L846.672 153.394C846.477 153.199 846.477 152.882 846.672 152.687C846.868 152.492 847.184 152.492 847.38 152.687L848.408 153.716L850.986 151.136C851.181 150.941 851.498 150.941 851.693 151.136Z" fill="#EEF0FB"/>
<path d="M852.285 160.54H846.079C844.555 160.54 843.32 161.776 843.32 163.3V169.51C843.32 171.034 844.555 172.27 846.079 172.27H852.285C853.808 172.27 855.043 171.034 855.043 169.51V163.3C855.043 161.776 853.808 160.54 852.285 160.54Z" fill="#22AD30"/>
<path fill-rule="evenodd" clip-rule="evenodd" d="M851.693 164.586C851.888 164.781 851.888 165.098 851.693 165.293L848.761 168.227C848.668 168.321 848.54 168.373 848.408 168.373C848.275 168.373 848.148 168.321 848.054 168.227L846.672 166.844C846.477 166.649 846.477 166.332 846.672 166.137C846.868 165.942 847.184 165.942 847.38 166.137L848.408 167.166L850.986 164.586C851.181 164.391 851.498 164.391 851.693 164.586Z" fill="#EEF0FB"/>
<path d="M852.285 174H846.079C844.555 174 843.32 175.236 843.32 176.76V182.97C843.32 184.494 844.555 185.73 846.079 185.73H852.285C853.808 185.73 855.043 184.494 855.043 182.97V176.76C855.043 175.236 853.808 174 852.285 174Z" fill="#22AD30"/>
<path fill-rule="evenodd" clip-rule="evenodd" d="M851.693 178.046C851.888 178.242 851.888 178.558 851.693 178.753L848.761 181.687C848.668 181.781 848.54 181.834 848.408 181.834C848.275 181.834 848.148 181.781 848.054 181.687L846.672 180.304C846.477 180.109 846.477 179.792 846.672 179.597C846.868 179.402 847.184 179.402 847.38 179.597L848.408 180.626L850.986 178.047C851.181 177.851 851.498 177.851 851.693 178.046Z" fill="#EEF0FB"/>
<path d="M852.285 187.45H846.079C844.555 187.45 843.32 188.686 843.32 190.21V196.42C843.32 197.944 844.555 199.18 846.079 199.18H852.285C853.808 199.18 855.043 197.944 855.043 196.42V190.21C855.043 188.686 853.808 187.45 852.285 187.45Z" fill="#22AD30"/>
<path fill-rule="evenodd" clip-rule="evenodd" d="M851.693 191.496C851.888 191.692 851.888 192.008 851.693 192.203L848.761 195.137C848.668 195.231 848.54 195.284 848.408 195.284C848.275 195.284 848.148 195.231 848.054 195.137L846.672 193.754C846.477 193.559 846.477 193.242 846.672 193.047C846.868 192.852 847.184 192.852 847.38 193.047L848.408 194.076L850.986 191.497C851.181 191.301 851.498 191.301 851.693 191.496Z" fill="#EEF0FB"/>
<path d="M838.838 174H832.632C831.109 174 829.874 175.235 829.874 176.76V182.969C829.874 184.494 831.109 185.729 832.632 185.729H838.838C840.362 185.729 841.597 184.494 841.597 182.969V176.76C841.597 175.235 840.362 174 838.838 174Z" fill="#22AD30"/>
<path fill-rule="evenodd" clip-rule="evenodd" d="M838.246 178.045C838.442 178.241 838.442 178.557 838.246 178.752L835.315 181.686C835.221 181.78 835.094 181.833 834.961 181.833C834.828 181.833 834.701 181.78 834.607 181.686L833.225 180.304C833.03 180.108 833.03 179.792 833.226 179.597C833.421 179.401 833.738 179.401 833.933 179.597L834.961 180.626L837.539 178.046C837.734 177.85 838.051 177.85 838.246 178.045Z" fill="#EEF0FB"/>
<path d="M838.838 187.45H832.632C831.109 187.45 829.874 188.686 829.874 190.21V196.42C829.874 197.944 831.109 199.18 832.632 199.18H838.838C840.362 199.18 841.597 197.944 841.597 196.42V190.21C841.597 188.686 840.362 187.45 838.838 187.45Z" fill="#22AD30"/>
<path fill-rule="evenodd" clip-rule="evenodd" d="M838.246 191.496C838.442 191.691 838.442 192.008 838.246 192.203L835.315 195.137C835.221 195.231 835.094 195.284 834.961 195.284C834.828 195.284 834.701 195.231 834.607 195.137L833.225 193.755C833.03 193.559 833.03 193.243 833.226 193.047C833.421 192.852 833.738 192.852 833.933 193.048L834.961 194.077L837.539 191.497C837.734 191.301 838.051 191.301 838.246 191.496Z" fill="#EEF0FB"/>
<path fill-rule="evenodd" clip-rule="evenodd" d="M788.154 142.57C786.612 142.57 785.361 143.821 785.361 145.365V202.635C785.361 204.179 786.612 205.43 788.154 205.43H811.945C813.486 205.43 814.737 204.179 814.737 202.635V145.365C814.737 143.821 813.486 142.57 811.945 142.57H788.154ZM783.361 145.365C783.361 142.717 785.507 140.57 788.154 140.57H811.945C814.592 140.57 816.737 142.717 816.737 145.365V202.635C816.737 205.283 814.592 207.43 811.945 207.43H788.154C785.507 207.43 783.361 205.283 783.361 202.635V145.365Z" fill="#572FAE"/>
<path d="M795.395 141.915H804.704V143.295C804.704 143.676 804.396 143.985 804.015 143.985H796.085C795.704 143.985 795.395 143.676 795.395 143.295V141.915Z" fill="#572FAE"/>
<path fill-rule="evenodd" clip-rule="evenodd" d="M794.395 140.915H805.704V143.295C805.704 144.228 804.949 144.985 804.015 144.985H796.085C795.151 144.985 794.395 144.228 794.395 143.295V140.915ZM796.395 142.915V142.985H803.704V142.915H796.395Z" fill="#572FAE"/>
<path d="M796.429 147.09H790.223C788.699 147.09 787.464 148.326 787.464 149.85V156.06C787.464 157.584 788.699 158.82 790.223 158.82H796.429C797.952 158.82 799.187 157.584 799.187 156.06V149.85C799.187 148.326 797.952 147.09 796.429 147.09Z" fill="#22AD30"/>
<path fill-rule="evenodd" clip-rule="evenodd" d="M795.837 151.136C796.032 151.331 796.032 151.648 795.837 151.843L792.906 154.777C792.812 154.871 792.685 154.923 792.552 154.923C792.419 154.923 792.292 154.871 792.198 154.777L790.816 153.394C790.621 153.199 790.621 152.882 790.816 152.687C791.012 152.492 791.328 152.492 791.524 152.687L792.552 153.716L795.13 151.136C795.325 150.941 795.642 150.941 795.837 151.136Z" fill="#EEF0FB"/>
<path d="M796.429 160.545H790.223C788.699 160.545 787.464 161.781 787.464 163.305V169.515C787.464 171.039 788.699 172.275 790.223 172.275H796.429C797.952 172.275 799.187 171.039 799.187 169.515V163.305C799.187 161.781 797.952 160.545 796.429 160.545Z" fill="#DD2A27"/>
<path fill-rule="evenodd" clip-rule="evenodd" d="M791.703 164.786C791.838 164.651 792.056 164.651 792.191 164.786L793.326 165.922L794.461 164.786C794.596 164.651 794.815 164.651 794.949 164.786C795.084 164.921 795.084 165.139 794.949 165.274L793.814 166.41L794.949 167.546C795.084 167.681 795.084 167.899 794.949 168.034C794.815 168.168 794.596 168.168 794.461 168.034L793.326 166.898L792.191 168.034C792.056 168.168 791.838 168.168 791.703 168.034C791.568 167.899 791.568 167.681 791.703 167.546L792.839 166.41L791.703 165.274C791.568 165.139 791.568 164.921 791.703 164.786Z" fill="#EEF0FB"/>
<path d="M809.875 160.545H803.669C802.146 160.545 800.911 161.781 800.911 163.305V169.515C800.911 171.039 802.146 172.275 803.669 172.275H809.875C811.399 172.275 812.634 171.039 812.634 169.515V163.305C812.634 161.781 811.399 160.545 809.875 160.545Z" fill="#22AD30"/>
<path fill-rule="evenodd" clip-rule="evenodd" d="M809.284 164.591C809.479 164.786 809.479 165.103 809.284 165.298L806.352 168.231C806.259 168.325 806.131 168.378 805.999 168.378C805.866 168.378 805.739 168.325 805.645 168.231L804.263 166.849C804.068 166.654 804.068 166.337 804.263 166.142C804.459 165.947 804.775 165.947 804.97 166.142L805.999 167.171L808.577 164.591C808.772 164.396 809.089 164.396 809.284 164.591Z" fill="#EEF0FB"/>
<path d="M809.875 174H803.669C802.146 174 800.911 175.236 800.911 176.76V182.97C800.911 184.494 802.146 185.73 803.669 185.73H809.875C811.399 185.73 812.634 184.494 812.634 182.97V176.76C812.634 175.236 811.399 174 809.875 174Z" fill="#22AD30"/>
<path fill-rule="evenodd" clip-rule="evenodd" d="M809.284 178.046C809.479 178.242 809.479 178.558 809.284 178.753L806.352 181.687C806.259 181.781 806.131 181.834 805.999 181.834C805.866 181.834 805.739 181.781 805.645 181.687L804.263 180.305C804.068 180.109 804.068 179.793 804.263 179.598C804.459 179.402 804.775 179.402 804.97 179.598L805.999 180.626L808.577 178.047C808.772 177.851 809.089 177.851 809.284 178.046Z" fill="#EEF0FB"/>
<path d="M809.875 187.45H803.669C802.146 187.45 800.911 188.686 800.911 190.21V196.42C800.911 197.944 802.146 199.18 803.669 199.18H809.875C811.399 199.18 812.634 197.944 812.634 196.42V190.21C812.634 188.686 811.399 187.45 809.875 187.45Z" fill="#22AD30"/>
<path fill-rule="evenodd" clip-rule="evenodd" d="M809.284 191.496C809.479 191.692 809.479 192.008 809.284 192.203L806.352 195.137C806.259 195.231 806.131 195.283 805.999 195.284C805.866 195.284 805.739 195.231 805.645 195.137L804.263 193.755C804.068 193.559 804.068 193.243 804.263 193.047C804.459 192.852 804.775 192.852 804.97 193.048L805.999 194.076L808.577 191.497C808.772 191.301 809.089 191.301 809.284 191.496Z" fill="#EEF0FB"/>
<path d="M809.875 147.09H803.669C802.146 147.09 800.911 148.326 800.911 149.85V156.06C800.911 157.584 802.146 158.82 803.669 158.82H809.875C811.399 158.82 812.634 157.584 812.634 156.06V149.85C812.634 148.326 811.399 147.09 809.875 147.09Z" fill="#22AD30"/>
<path fill-rule="evenodd" clip-rule="evenodd" d="M809.284 151.136C809.479 151.332 809.479 151.648 809.284 151.843L806.352 154.777C806.259 154.871 806.131 154.924 805.999 154.924C805.866 154.924 805.739 154.871 805.645 154.777L804.263 153.395C804.068 153.199 804.068 152.883 804.263 152.687C804.459 152.492 804.775 152.492 804.97 152.688L805.999 153.716L808.577 151.137C808.772 150.941 809.089 150.941 809.284 151.136Z" fill="#EEF0FB"/>
<path d="M796.429 187.454H790.223C788.699 187.454 787.464 188.69 787.464 190.214V196.424C787.464 197.948 788.699 199.184 790.223 199.184H796.429C797.952 199.184 799.187 197.948 799.187 196.424V190.214C799.187 188.69 797.952 187.454 796.429 187.454Z" fill="#22AD30"/>
<path fill-rule="evenodd" clip-rule="evenodd" d="M795.837 191.5C796.032 191.696 796.032 192.012 795.837 192.207L792.906 195.141C792.812 195.235 792.685 195.288 792.552 195.288C792.419 195.288 792.292 195.235 792.198 195.141L790.816 193.758C790.621 193.563 790.621 193.246 790.816 193.051C791.012 192.856 791.328 192.856 791.524 193.051L792.552 194.08L795.13 191.501C795.325 191.305 795.642 191.305 795.837 191.5Z" fill="#EEF0FB"/>
<path d="M796.429 174H790.223C788.699 174 787.464 175.236 787.464 176.76V182.97C787.464 184.494 788.699 185.73 790.223 185.73H796.429C797.952 185.73 799.187 184.494 799.187 182.97V176.76C799.187 175.236 797.952 174 796.429 174Z" fill="#22AD30"/>
<path fill-rule="evenodd" clip-rule="evenodd" d="M795.837 178.046C796.032 178.242 796.032 178.558 795.837 178.753L792.906 181.687C792.812 181.781 792.685 181.834 792.552 181.834C792.419 181.834 792.292 181.781 792.198 181.687L790.816 180.304C790.621 180.109 790.621 179.792 790.816 179.597C791.012 179.402 791.328 179.402 791.524 179.597L792.552 180.626L795.13 178.047C795.325 177.851 795.642 177.851 795.837 178.046Z" fill="#EEF0FB"/>
<path fill-rule="evenodd" clip-rule="evenodd" d="M790.084 220.26C791.459 218.705 793.434 217.815 795.508 217.815H846.933C848.993 217.815 850.956 218.693 852.33 220.229L857.78 226.325C858.274 226.877 858.492 227.529 858.488 228.167V240.242C858.478 241.658 857.368 243 855.724 243H786.78C785.14 243 784.029 241.662 784.017 240.248V228.16C784.014 227.53 784.23 226.885 784.714 226.336L790.084 220.26ZM846.933 218.505H795.508C793.631 218.505 791.844 219.311 790.601 220.717L785.231 226.794C784.05 228.13 784.998 230.235 786.78 230.235H855.724C857.512 230.235 858.459 228.118 857.266 226.785L851.815 220.689C850.573 219.299 848.797 218.505 846.933 218.505ZM786.78 230.925H855.724C856.591 230.925 857.31 230.552 857.797 229.991V240.242C857.789 241.304 856.957 242.31 855.724 242.31H786.78C785.551 242.31 784.718 241.308 784.708 240.248L784.703 229.986C785.191 230.549 785.911 230.925 786.78 230.925Z" fill="#572FAE"/>
<path fill-rule="evenodd" clip-rule="evenodd" d="M857.78 226.325L852.33 220.229C850.956 218.693 848.993 217.815 846.933 217.815H795.508C793.434 217.815 791.459 218.705 790.084 220.26L784.714 226.336C784.346 226.753 784.133 227.226 784.053 227.705C784.028 227.857 784.016 228.009 784.017 228.16V240.248C784.017 240.248 784.017 240.248 784.017 240.248C784.017 240.25 784.017 240.252 784.017 240.255C784.033 241.667 785.142 243 786.78 243H855.724C857.366 243 858.475 241.662 858.488 240.248C858.488 240.246 858.488 240.244 858.488 240.242V228.167C858.489 228.016 858.478 227.863 858.453 227.711C858.373 227.225 858.156 226.745 857.78 226.325C857.78 226.325 857.78 226.325 857.78 226.325ZM857.768 228.5C857.786 228.39 857.796 228.279 857.797 228.167C857.797 228.166 857.797 228.164 857.797 228.163C857.8 227.686 857.636 227.198 857.266 226.785L851.815 220.689C850.573 219.299 848.797 218.505 846.933 218.505H795.508C793.631 218.505 791.845 219.31 790.601 220.717L785.231 226.793C784.869 227.203 784.706 227.686 784.708 228.157C784.708 228.158 784.708 228.159 784.708 228.16C784.708 228.273 784.718 228.385 784.736 228.495C784.781 228.761 784.877 229.018 785.017 229.248C785.078 229.349 785.148 229.445 785.226 229.534C785.591 229.955 786.13 230.235 786.78 230.235H855.724C856.373 230.235 856.91 229.957 857.276 229.538C857.355 229.447 857.426 229.35 857.488 229.248C857.627 229.019 857.723 228.764 857.768 228.5ZM856.797 230.715C856.475 230.849 856.115 230.925 855.724 230.925H786.78C786.389 230.925 786.027 230.849 785.704 230.713C785.45 230.607 785.22 230.465 785.017 230.294C784.904 230.2 784.799 230.096 784.703 229.986L784.708 240.248C784.718 241.308 785.551 242.31 786.78 242.31H855.724C856.957 242.31 857.789 241.304 857.797 240.242V229.991C857.703 230.1 857.6 230.202 857.488 230.295C857.284 230.466 857.052 230.609 856.797 230.715Z" fill="#572FAE"/>
<path d="M825.259 222.244C825.486 221.965 825.411 221.404 825.053 221.372C824.303 221.304 823.52 221.265 822.631 221.265C817.87 221.265 814.011 222.269 814.011 223.508C814.011 224.746 817.87 225.75 822.631 225.75C824.81 225.75 826.751 225.54 828.245 225.193C828.595 225.111 828.561 224.644 828.209 224.57C826.253 224.16 825.044 223.527 825.044 222.818C825.044 222.618 825.11 222.426 825.259 222.244Z" fill="#572FAE"/>
<path fill-rule="evenodd" clip-rule="evenodd" d="M825.259 222.244C825.486 221.965 825.411 221.404 825.053 221.372C824.303 221.304 823.52 221.265 822.631 221.265C817.87 221.265 814.011 222.269 814.011 223.508C814.011 224.746 817.87 225.75 822.631 225.75C824.374 225.75 825.965 225.615 827.297 225.384C827.413 225.364 827.527 225.343 827.639 225.321C827.786 225.293 827.93 225.263 828.069 225.233C828.07 225.233 828.07 225.233 828.07 225.233C828.129 225.22 828.188 225.206 828.245 225.193C828.595 225.111 828.561 224.644 828.209 224.57C828.171 224.562 828.133 224.554 828.095 224.546C828.095 224.546 828.095 224.546 828.095 224.546C827.945 224.514 827.8 224.48 827.659 224.444C827.55 224.417 827.444 224.389 827.341 224.36C825.901 223.958 825.044 223.415 825.044 222.818C825.044 222.618 825.11 222.426 825.259 222.244ZM825.323 224.633C824.749 224.302 824.044 223.725 824.044 222.818C824.044 222.641 824.069 222.47 824.116 222.305C823.65 222.279 823.16 222.265 822.631 222.265C820.31 222.265 818.243 222.511 816.787 222.89C816.052 223.081 815.528 223.292 815.212 223.486C815.2 223.494 815.189 223.501 815.178 223.508C815.189 223.514 815.2 223.521 815.212 223.529C815.528 223.723 816.052 223.934 816.787 224.125C818.243 224.504 820.31 224.75 822.631 224.75C823.586 224.75 824.49 224.708 825.323 224.633ZM814.972 223.341C814.972 223.341 814.974 223.343 814.977 223.348C814.973 223.343 814.971 223.341 814.972 223.341ZM814.977 223.667C814.974 223.672 814.972 223.674 814.972 223.674C814.971 223.674 814.973 223.672 814.977 223.667ZM824.483 221.613L824.483 221.613Z" fill="#572FAE"/>
<path fill-rule="evenodd" clip-rule="evenodd" d="M845.387 239.17C845.368 239.17 845.353 239.185 845.353 239.205C845.353 239.225 845.368 239.24 845.387 239.24C845.405 239.24 845.421 239.225 845.421 239.205C845.421 239.185 845.405 239.17 845.387 239.17ZM843.353 239.205C843.353 238.082 844.263 237.17 845.387 237.17C846.511 237.17 847.421 238.082 847.421 239.205C847.421 240.328 846.511 241.24 845.387 241.24C844.263 241.24 843.353 240.328 843.353 239.205Z" fill="#572FAE"/>
<path fill-rule="evenodd" clip-rule="evenodd" d="M916.072 142.57C914.53 142.57 913.279 143.821 913.279 145.365V202.635C913.279 204.179 914.53 205.43 916.072 205.43H939.863C941.404 205.43 942.655 204.179 942.655 202.635V145.365C942.655 143.821 941.404 142.57 939.863 142.57H916.072ZM911.279 145.365C911.279 142.717 913.424 140.57 916.072 140.57H939.863C942.51 140.57 944.655 142.717 944.655 145.365V202.635C944.655 205.283 942.51 207.43 939.863 207.43H916.072C913.424 207.43 911.279 205.283 911.279 202.635V145.365Z" fill="#572FAE"/>
<path d="M923.312 141.915H932.622V143.295C932.622 143.676 932.313 143.985 931.932 143.985H924.002C923.621 143.985 923.312 143.676 923.312 143.295V141.915Z" fill="#572FAE"/>
<path fill-rule="evenodd" clip-rule="evenodd" d="M922.312 140.915H933.622V143.295C933.622 144.228 932.866 144.985 931.932 144.985H924.002C923.068 144.985 922.312 144.228 922.312 143.295V140.915ZM924.312 142.915V142.985H931.622V142.915H924.312Z" fill="#572FAE"/>
<path d="M924.347 147.09H918.141C916.617 147.09 915.382 148.326 915.382 149.85V156.06C915.382 157.584 916.617 158.82 918.141 158.82H924.347C925.87 158.82 927.105 157.584 927.105 156.06V149.85C927.105 148.326 925.87 147.09 924.347 147.09Z" fill="#DD2A27"/>
<path fill-rule="evenodd" clip-rule="evenodd" d="M919.621 151.331C919.755 151.196 919.974 151.196 920.108 151.331L921.244 152.467L922.379 151.331C922.513 151.196 922.732 151.196 922.866 151.331C923.001 151.466 923.001 151.684 922.866 151.819L921.731 152.955L922.866 154.091C923.001 154.226 923.001 154.444 922.866 154.579C922.732 154.714 922.513 154.714 922.379 154.579L921.244 153.443L920.108 154.579C919.974 154.714 919.755 154.714 919.621 154.579C919.486 154.444 919.486 154.226 919.621 154.091L920.756 152.955L919.621 151.819C919.486 151.684 919.486 151.466 919.621 151.331Z" fill="#EEF0FB"/>
<path d="M937.793 147.09H931.587C930.064 147.09 928.829 148.326 928.829 149.85V156.06C928.829 157.584 930.064 158.82 931.587 158.82H937.793C939.316 158.82 940.551 157.584 940.551 156.06V149.85C940.551 148.326 939.316 147.09 937.793 147.09Z" fill="#22AD30"/>
<path fill-rule="evenodd" clip-rule="evenodd" d="M937.201 151.136C937.397 151.331 937.397 151.648 937.202 151.843L934.27 154.777C934.176 154.871 934.049 154.923 933.916 154.923C933.783 154.923 933.656 154.871 933.562 154.777L932.181 153.394C931.985 153.199 931.985 152.882 932.181 152.687C932.376 152.492 932.693 152.492 932.888 152.687L933.916 153.716L936.494 151.136C936.689 150.941 937.006 150.941 937.201 151.136Z" fill="#EEF0FB"/>
<path d="M937.793 160.54H931.587C930.064 160.54 928.829 161.776 928.829 163.3V169.51C928.829 171.034 930.064 172.27 931.587 172.27H937.793C939.316 172.27 940.551 171.034 940.551 169.51V163.3C940.551 161.776 939.316 160.54 937.793 160.54Z" fill="#22AD30"/>
<path fill-rule="evenodd" clip-rule="evenodd" d="M937.201 164.586C937.397 164.781 937.397 165.098 937.202 165.293L934.27 168.227C934.176 168.321 934.049 168.373 933.916 168.373C933.783 168.373 933.656 168.321 933.562 168.227L932.181 166.844C931.985 166.649 931.985 166.332 932.181 166.137C932.376 165.942 932.693 165.942 932.888 166.137L933.916 167.166L936.494 164.586C936.689 164.391 937.006 164.391 937.201 164.586Z" fill="#EEF0FB"/>
<path d="M924.347 174H918.141C916.617 174 915.382 175.235 915.382 176.76V182.969C915.382 184.494 916.617 185.729 918.141 185.729H924.347C925.87 185.729 927.105 184.494 927.105 182.969V176.76C927.105 175.235 925.87 174 924.347 174Z" fill="#22AD30"/>
<path fill-rule="evenodd" clip-rule="evenodd" d="M923.755 178.045C923.95 178.241 923.95 178.557 923.755 178.752L920.823 181.686C920.729 181.78 920.602 181.833 920.469 181.833C920.337 181.833 920.209 181.78 920.116 181.686L918.734 180.304C918.539 180.108 918.539 179.792 918.734 179.597C918.929 179.401 919.246 179.401 919.441 179.597L920.469 180.626L923.047 178.046C923.243 177.85 923.559 177.85 923.755 178.045Z" fill="#EEF0FB"/>
<path d="M924.347 160.54H918.141C916.617 160.54 915.382 161.776 915.382 163.3V169.51C915.382 171.034 916.617 172.27 918.141 172.27H924.347C925.87 172.27 927.105 171.034 927.105 169.51V163.3C927.105 161.776 925.87 160.54 924.347 160.54Z" fill="#22AD30"/>
<path fill-rule="evenodd" clip-rule="evenodd" d="M923.755 164.586C923.95 164.781 923.95 165.098 923.755 165.293L920.823 168.227C920.729 168.321 920.602 168.374 920.469 168.374C920.337 168.374 920.209 168.321 920.116 168.227L918.734 166.845C918.539 166.649 918.539 166.333 918.734 166.137C918.929 165.942 919.246 165.942 919.441 166.138L920.469 167.166L923.047 164.587C923.243 164.391 923.559 164.391 923.755 164.586Z" fill="#EEF0FB"/>
<path d="M924.347 187.45H918.141C916.617 187.45 915.382 188.686 915.382 190.21V196.42C915.382 197.944 916.617 199.18 918.141 199.18H924.347C925.87 199.18 927.105 197.944 927.105 196.42V190.21C927.105 188.686 925.87 187.45 924.347 187.45Z" fill="#22AD30"/>
<path fill-rule="evenodd" clip-rule="evenodd" d="M923.755 191.496C923.95 191.691 923.95 192.008 923.755 192.203L920.823 195.137C920.729 195.231 920.602 195.284 920.469 195.284C920.337 195.284 920.209 195.231 920.116 195.137L918.734 193.755C918.539 193.559 918.539 193.243 918.734 193.047C918.929 192.852 919.246 192.852 919.441 193.048L920.469 194.077L923.047 191.497C923.243 191.301 923.559 191.301 923.755 191.496Z" fill="#EEF0FB"/>
<path d="M937.793 174H931.587C930.064 174 928.829 175.235 928.829 176.76V182.969C928.829 184.494 930.064 185.729 931.587 185.729H937.793C939.316 185.729 940.551 184.494 940.551 182.969V176.76C940.551 175.235 939.316 174 937.793 174Z" fill="#DD2A27"/>
<path fill-rule="evenodd" clip-rule="evenodd" d="M933.067 178.241C933.202 178.106 933.42 178.106 933.555 178.241L934.69 179.377L935.825 178.241C935.96 178.106 936.179 178.106 936.313 178.241C936.448 178.375 936.448 178.594 936.313 178.729L935.178 179.865L936.313 181.001C936.448 181.135 936.448 181.354 936.313 181.489C936.179 181.623 935.96 181.623 935.825 181.489L934.69 180.352L933.555 181.489C933.42 181.623 933.202 181.623 933.067 181.489C932.933 181.354 932.933 181.135 933.067 181.001L934.203 179.865L933.067 178.729C932.933 178.594 932.933 178.375 933.067 178.241Z" fill="#EEF0FB"/>
<path d="M937.793 187.454H931.587C930.064 187.454 928.829 188.69 928.829 190.214V196.424C928.829 197.948 930.064 199.184 931.587 199.184H937.793C939.316 199.184 940.551 197.948 940.551 196.424V190.214C940.551 188.69 939.316 187.454 937.793 187.454Z" fill="#22AD30"/>
<path fill-rule="evenodd" clip-rule="evenodd" d="M937.201 191.5C937.397 191.696 937.397 192.012 937.202 192.207L934.27 195.141C934.176 195.235 934.049 195.288 933.916 195.288C933.783 195.288 933.656 195.235 933.562 195.141L932.181 193.758C931.985 193.563 931.985 193.246 932.181 193.051C932.376 192.856 932.693 192.856 932.888 193.051L933.916 194.08L936.494 191.501C936.689 191.305 937.006 191.305 937.201 191.5Z" fill="#EEF0FB"/>
<path fill-rule="evenodd" clip-rule="evenodd" d="M873.662 142.57C872.121 142.57 870.87 143.821 870.87 145.365V202.635C870.87 204.179 872.121 205.43 873.662 205.43H897.453C898.995 205.43 900.246 204.179 900.246 202.635V145.365C900.246 143.821 898.995 142.57 897.453 142.57H873.662ZM868.87 145.365C868.87 142.717 871.015 140.57 873.662 140.57H897.453C900.1 140.57 902.246 142.717 902.246 145.365V202.635C902.246 205.283 900.1 207.43 897.453 207.43H873.662C871.015 207.43 868.87 205.283 868.87 202.635V145.365Z" fill="#572FAE"/>
<path d="M880.903 141.915H890.213V143.295C890.213 143.676 889.904 143.985 889.523 143.985H881.593C881.212 143.985 880.903 143.676 880.903 143.295V141.915Z" fill="#572FAE"/>
<path fill-rule="evenodd" clip-rule="evenodd" d="M879.903 140.915H891.213V143.295C891.213 144.228 890.457 144.985 889.523 144.985H881.593C880.659 144.985 879.903 144.228 879.903 143.295V140.915ZM881.903 142.915V142.985H889.213V142.915H881.903Z" fill="#572FAE"/>
<path d="M895.384 147.09H889.178C887.654 147.09 886.419 148.326 886.419 149.85V156.06C886.419 157.584 887.654 158.82 889.178 158.82H895.384C896.907 158.82 898.142 157.584 898.142 156.06V149.85C898.142 148.326 896.907 147.09 895.384 147.09Z" fill="#DD2A27"/>
<path fill-rule="evenodd" clip-rule="evenodd" d="M890.658 151.331C890.793 151.196 891.011 151.196 891.146 151.331L892.281 152.467L893.416 151.331C893.551 151.196 893.769 151.196 893.904 151.331C894.039 151.466 894.039 151.684 893.904 151.819L892.768 152.955L893.904 154.091C894.039 154.226 894.039 154.444 893.904 154.579C893.769 154.714 893.551 154.714 893.416 154.579L892.281 153.443L891.146 154.579C891.011 154.714 890.793 154.714 890.658 154.579C890.524 154.444 890.524 154.226 890.658 154.091L891.793 152.955L890.658 151.819C890.524 151.684 890.524 151.466 890.658 151.331Z" fill="#EEF0FB"/>
<path d="M881.937 174H875.731C874.208 174 872.973 175.235 872.973 176.76V182.969C872.973 184.494 874.208 185.729 875.731 185.729H881.937C883.46 185.729 884.695 184.494 884.695 182.969V176.76C884.695 175.235 883.46 174 881.937 174Z" fill="#22AD30"/>
<path fill-rule="evenodd" clip-rule="evenodd" d="M881.346 178.045C881.541 178.241 881.541 178.557 881.346 178.752L878.414 181.686C878.321 181.78 878.193 181.833 878.061 181.833C877.928 181.833 877.801 181.78 877.707 181.686L876.325 180.304C876.13 180.108 876.13 179.792 876.325 179.597C876.521 179.401 876.837 179.401 877.032 179.597L878.061 180.626L880.639 178.046C880.834 177.85 881.151 177.85 881.346 178.045Z" fill="#EEF0FB"/>
<path d="M881.937 160.54H875.731C874.208 160.54 872.973 161.776 872.973 163.3V169.51C872.973 171.034 874.208 172.27 875.731 172.27H881.937C883.46 172.27 884.695 171.034 884.695 169.51V163.3C884.695 161.776 883.46 160.54 881.937 160.54Z" fill="#22AD30"/>
<path fill-rule="evenodd" clip-rule="evenodd" d="M881.346 164.586C881.541 164.781 881.541 165.098 881.346 165.293L878.414 168.227C878.321 168.321 878.193 168.374 878.061 168.374C877.928 168.374 877.801 168.321 877.707 168.227L876.325 166.845C876.13 166.649 876.13 166.333 876.325 166.137C876.521 165.942 876.837 165.942 877.032 166.138L878.061 167.166L880.639 164.587C880.834 164.391 881.151 164.391 881.346 164.586Z" fill="#EEF0FB"/>
<path d="M881.937 147.09H875.731C874.208 147.09 872.973 148.326 872.973 149.85V156.06C872.973 157.584 874.208 158.82 875.731 158.82H881.937C883.46 158.82 884.695 157.584 884.695 156.06V149.85C884.695 148.326 883.46 147.09 881.937 147.09Z" fill="#22AD30"/>
<path fill-rule="evenodd" clip-rule="evenodd" d="M881.346 151.136C881.541 151.332 881.541 151.648 881.346 151.843L878.414 154.777C878.321 154.871 878.193 154.924 878.061 154.924C877.928 154.924 877.801 154.871 877.707 154.777L876.325 153.395C876.13 153.199 876.13 152.883 876.325 152.687C876.521 152.492 876.837 152.492 877.032 152.688L878.061 153.717L880.639 151.137C880.834 150.941 881.151 150.941 881.346 151.136Z" fill="#EEF0FB"/>
<path d="M895.384 174H889.178C887.654 174 886.419 175.235 886.419 176.76V182.969C886.419 184.494 887.654 185.729 889.178 185.729H895.384C896.907 185.729 898.142 184.494 898.142 182.969V176.76C898.142 175.235 896.907 174 895.384 174Z" fill="#22AD30"/>
<path fill-rule="evenodd" clip-rule="evenodd" d="M894.792 178.045C894.987 178.241 894.988 178.557 894.792 178.752L891.861 181.686C891.767 181.78 891.64 181.833 891.507 181.833C891.374 181.833 891.247 181.78 891.153 181.686L889.771 180.304C889.576 180.108 889.576 179.792 889.772 179.597C889.967 179.401 890.283 179.401 890.479 179.597L891.507 180.626L894.085 178.046C894.28 177.85 894.597 177.85 894.792 178.045Z" fill="#EEF0FB"/>
<path d="M895.384 160.54H889.178C887.654 160.54 886.419 161.776 886.419 163.3V169.51C886.419 171.034 887.654 172.27 889.178 172.27H895.384C896.907 172.27 898.142 171.034 898.142 169.51V163.3C898.142 161.776 896.907 160.54 895.384 160.54Z" fill="#22AD30"/>
<path fill-rule="evenodd" clip-rule="evenodd" d="M894.792 164.586C894.987 164.781 894.988 165.098 894.792 165.293L891.861 168.227C891.767 168.321 891.64 168.374 891.507 168.374C891.374 168.374 891.247 168.321 891.153 168.227L889.771 166.845C889.576 166.649 889.576 166.333 889.772 166.137C889.967 165.942 890.283 165.942 890.479 166.138L891.507 167.166L894.085 164.587C894.28 164.391 894.597 164.391 894.792 164.586Z" fill="#EEF0FB"/>
<path d="M881.937 187.454H875.731C874.208 187.454 872.973 188.69 872.973 190.214V196.424C872.973 197.948 874.208 199.184 875.731 199.184H881.937C883.46 199.184 884.695 197.948 884.695 196.424V190.214C884.695 188.69 883.46 187.454 881.937 187.454Z" fill="#DD2A27"/>
<path fill-rule="evenodd" clip-rule="evenodd" d="M877.211 191.695C877.346 191.561 877.565 191.561 877.699 191.695L878.834 192.831L879.97 191.695C880.104 191.561 880.323 191.561 880.457 191.695C880.592 191.83 880.592 192.049 880.457 192.183L879.322 193.319L880.457 194.455C880.592 194.59 880.592 194.809 880.457 194.943C880.323 195.078 880.104 195.078 879.97 194.943L878.834 193.807L877.699 194.943C877.565 195.078 877.346 195.078 877.211 194.943C877.077 194.809 877.077 194.59 877.211 194.455L878.347 193.319L877.211 192.183C877.077 192.049 877.077 191.83 877.211 191.695Z" fill="#EEF0FB"/>
<path d="M895.384 187.454H889.178C887.654 187.454 886.419 188.69 886.419 190.214V196.424C886.419 197.948 887.654 199.184 889.178 199.184H895.384C896.907 199.184 898.142 197.948 898.142 196.424V190.214C898.142 188.69 896.907 187.454 895.384 187.454Z" fill="#22AD30"/>
<path fill-rule="evenodd" clip-rule="evenodd" d="M894.792 191.5C894.987 191.696 894.988 192.012 894.792 192.207L891.861 195.141C891.767 195.235 891.64 195.288 891.507 195.288C891.374 195.288 891.247 195.235 891.153 195.141L889.771 193.758C889.576 193.563 889.576 193.246 889.772 193.051C889.967 192.856 890.283 192.856 890.479 193.051L891.507 194.08L894.085 191.501C894.28 191.305 894.597 191.305 894.792 191.5Z" fill="#EEF0FB"/>
<path fill-rule="evenodd" clip-rule="evenodd" d="M875.593 220.26C876.967 218.705 878.942 217.815 881.016 217.815H932.441C934.502 217.815 936.464 218.693 937.838 220.229L943.288 226.325C943.782 226.877 944.001 227.529 943.996 228.167V240.242C943.986 241.658 942.877 243 941.233 243H872.289C870.648 243 869.537 241.662 869.525 240.248V228.16C869.522 227.53 869.738 226.885 870.222 226.336L875.593 220.26ZM932.441 218.505H881.016C879.139 218.505 877.353 219.311 876.109 220.717L870.739 226.794C869.558 228.13 870.506 230.235 872.289 230.235H941.233C943.021 230.235 943.967 228.118 942.775 226.785L937.324 220.689C936.081 219.299 934.305 218.505 932.441 218.505ZM872.289 230.925H941.233C942.1 230.925 942.819 230.552 943.306 229.991V240.242C943.298 241.304 942.465 242.31 941.233 242.31H872.289C871.059 242.31 870.226 241.308 870.216 240.248L870.212 229.986C870.699 230.549 871.419 230.925 872.289 230.925Z" fill="#572FAE"/>
<path fill-rule="evenodd" clip-rule="evenodd" d="M943.288 226.325L937.838 220.229C936.464 218.693 934.502 217.815 932.441 217.815H881.016C878.942 217.815 876.967 218.705 875.593 220.26L870.222 226.336C869.855 226.753 869.641 227.226 869.561 227.705C869.536 227.857 869.524 228.009 869.525 228.16V240.248C869.525 240.248 869.525 240.248 869.525 240.248C869.525 240.25 869.525 240.252 869.525 240.255C869.541 241.667 870.651 243 872.289 243H941.233C942.875 243 943.984 241.662 943.996 240.248C943.996 240.246 943.996 240.244 943.996 240.242V228.167C943.997 228.016 943.986 227.863 943.961 227.711C943.881 227.225 943.664 226.745 943.288 226.325C943.288 226.325 943.288 226.325 943.288 226.325ZM943.276 228.5C943.295 228.39 943.305 228.279 943.305 228.167C943.305 228.166 943.305 228.164 943.305 228.163C943.308 227.686 943.144 227.198 942.775 226.785L937.324 220.689C936.081 219.299 934.305 218.505 932.441 218.505H881.016C879.14 218.505 877.353 219.31 876.11 220.717L870.739 226.793C870.377 227.203 870.215 227.686 870.216 228.157C870.216 228.158 870.216 228.159 870.216 228.16C870.216 228.273 870.226 228.385 870.244 228.495C870.289 228.761 870.385 229.018 870.525 229.248C870.586 229.349 870.656 229.445 870.734 229.534C871.099 229.955 871.639 230.235 872.289 230.235H941.233C941.881 230.235 942.419 229.957 942.784 229.538C942.863 229.447 942.934 229.35 942.996 229.248C943.136 229.019 943.231 228.764 943.276 228.5ZM942.306 230.715C941.983 230.849 941.623 230.925 941.233 230.925H872.289C871.897 230.925 871.536 230.849 871.212 230.713C870.958 230.607 870.728 230.465 870.525 230.294C870.412 230.2 870.307 230.096 870.212 229.986L870.216 240.248C870.226 241.308 871.059 242.31 872.289 242.31H941.233C942.465 242.31 943.298 241.304 943.306 240.242V229.991C943.211 230.1 943.108 230.202 942.996 230.295C942.792 230.466 942.561 230.609 942.306 230.715Z" fill="#572FAE"/>
<path d="M910.767 222.244C910.994 221.965 910.919 221.404 910.561 221.372C909.811 221.304 909.028 221.265 908.139 221.265C903.378 221.265 899.519 222.269 899.519 223.508C899.519 224.746 903.378 225.75 908.139 225.75C910.318 225.75 912.26 225.54 913.754 225.193C914.104 225.111 914.069 224.644 913.717 224.57C911.761 224.16 910.552 223.527 910.552 222.818C910.552 222.618 910.619 222.426 910.767 222.244Z" fill="#572FAE"/>
<path fill-rule="evenodd" clip-rule="evenodd" d="M910.767 222.244C910.994 221.965 910.919 221.404 910.561 221.372C909.811 221.304 909.028 221.265 908.139 221.265C903.378 221.265 899.519 222.269 899.519 223.508C899.519 224.746 903.378 225.75 908.139 225.75C909.882 225.75 911.474 225.615 912.805 225.384C912.921 225.364 913.035 225.343 913.147 225.321C913.294 225.293 913.438 225.263 913.578 225.233C913.578 225.233 913.578 225.233 913.578 225.233C913.637 225.22 913.696 225.206 913.754 225.193C914.104 225.111 914.069 224.644 913.717 224.57C913.679 224.562 913.641 224.554 913.604 224.546C913.604 224.546 913.603 224.546 913.603 224.546C913.453 224.514 913.308 224.48 913.167 224.444C913.058 224.417 912.952 224.389 912.849 224.36C911.41 223.958 910.552 223.415 910.552 222.818C910.552 222.618 910.619 222.426 910.767 222.244ZM910.831 224.633C910.257 224.302 909.552 223.725 909.552 222.818C909.552 222.641 909.577 222.47 909.624 222.305C909.158 222.279 908.669 222.265 908.139 222.265C905.818 222.265 903.752 222.511 902.296 222.89C901.56 223.081 901.036 223.292 900.72 223.486C900.709 223.494 900.697 223.501 900.687 223.508C900.697 223.514 900.709 223.521 900.72 223.529C901.036 223.723 901.56 223.934 902.296 224.125C903.752 224.504 905.818 224.75 908.139 224.75C909.095 224.75 909.998 224.708 910.831 224.633ZM900.48 223.341C900.48 223.341 900.482 223.343 900.485 223.348C900.481 223.343 900.48 223.341 900.48 223.341ZM900.485 223.667C900.482 223.672 900.48 223.674 900.48 223.674C900.48 223.674 900.481 223.672 900.485 223.667ZM909.991 221.613L909.991 221.613Z" fill="#572FAE"/>
<path fill-rule="evenodd" clip-rule="evenodd" d="M930.895 239.17C930.876 239.17 930.86 239.185 930.86 239.205C930.86 239.225 930.876 239.24 930.895 239.24C930.913 239.24 930.929 239.225 930.929 239.205C930.929 239.185 930.913 239.17 930.895 239.17ZM928.86 239.205C928.86 238.082 929.771 237.17 930.895 237.17C932.019 237.17 932.929 238.082 932.929 239.205C932.929 240.328 932.019 241.24 930.895 241.24C929.771 241.24 928.86 240.328 928.86 239.205Z" fill="#572FAE"/>
<path d="M830.563 36.345H726.436C720.152 36.345 715.058 41.4422 715.058 47.73V105.345C715.058 111.633 720.152 116.73 726.436 116.73H830.563C836.847 116.73 841.941 111.633 841.941 105.345V47.73C841.941 41.4422 836.847 36.345 830.563 36.345Z" fill="#5143B8"/>
<path fill-rule="evenodd" clip-rule="evenodd" d="M726.436 37.345C720.705 37.345 716.058 41.9939 716.058 47.73V105.345C716.058 111.081 720.705 115.73 726.436 115.73H830.563C836.294 115.73 840.941 111.081 840.941 105.345V47.73C840.941 41.9939 836.294 37.345 830.563 37.345H726.436ZM714.058 47.73C714.058 40.8905 719.599 35.345 726.436 35.345H830.563C837.4 35.345 842.941 40.8905 842.941 47.73V105.345C842.941 112.184 837.4 117.73 830.563 117.73H726.436C719.599 117.73 714.058 112.184 714.058 105.345V47.73Z" fill="#572FAE"/>
<path fill-rule="evenodd" clip-rule="evenodd" d="M779.5 116.73V126.39C779.5 128.466 777.818 130.15 775.742 130.15H757.778V142.26H755.778V128.15H775.742C776.712 128.15 777.5 127.362 777.5 126.39V116.73H779.5Z" fill="#572FAE"/>
<path fill-rule="evenodd" clip-rule="evenodd" d="M713.369 128.15H758.847V130.15H715.369V142.26H713.369V128.15Z" fill="#572FAE"/>
<path fill-rule="evenodd" clip-rule="evenodd" d="M670.27 128.15H715.748V130.15H672.27V142.26H670.27V128.15Z" fill="#572FAE"/>
<path fill-rule="evenodd" clip-rule="evenodd" d="M631.619 130.15C630.648 130.15 629.86 130.938 629.86 131.91V142.26H627.86V131.91C627.86 129.834 629.542 128.15 631.619 128.15H673.338V130.15H631.619Z" fill="#572FAE"/>
<path fill-rule="evenodd" clip-rule="evenodd" d="M779.5 116.73V126.39C779.5 127.362 780.288 128.15 781.258 128.15H801.222V142.26H799.222V130.15H781.258C779.182 130.15 777.5 128.466 777.5 126.39V116.73H779.5Z" fill="#572FAE"/>
<path fill-rule="evenodd" clip-rule="evenodd" d="M798.153 128.15H843.631V142.26H841.631V130.15H798.153V128.15Z" fill="#572FAE"/>
<path fill-rule="evenodd" clip-rule="evenodd" d="M841.252 128.15H886.73V142.26H884.73V130.15H841.252V128.15Z" fill="#572FAE"/>
<path fill-rule="evenodd" clip-rule="evenodd" d="M883.662 128.15H925.381C927.458 128.15 929.14 129.834 929.14 131.91V142.26H927.14V131.91C927.14 130.938 926.352 130.15 925.381 130.15H883.662V128.15Z" fill="#572FAE"/>
<path d="M784.236 70.569C783.474 68.9353 784.181 66.9934 785.814 66.2316C787.448 65.4697 789.39 66.1766 790.152 67.8103L796.184 80.747C796.946 82.3807 796.239 84.3226 794.606 85.0844C792.972 85.8462 791.03 85.1394 790.268 83.5057L784.236 70.569Z" fill="white"/>
<path fill-rule="evenodd" clip-rule="evenodd" d="M786.026 66.6847C787.409 66.0396 789.053 66.6382 789.699 68.0216L795.731 80.9583C796.376 82.3417 795.778 83.9862 794.394 84.6313C793.011 85.2764 791.366 84.6779 790.721 83.2944L784.689 70.3577C784.044 68.9743 784.642 67.3298 786.026 66.6847ZM790.605 67.599C789.726 65.715 787.487 64.8999 785.603 65.7784C783.719 66.6569 782.904 68.8964 783.782 70.7804L789.815 83.7171C790.693 85.601 792.933 86.4161 794.817 85.5376C796.701 84.6591 797.516 82.4197 796.637 80.5357L790.605 67.599Z" fill="white"/>
<path d="M789.333 71.6248C790.714 70.4661 790.894 68.4074 789.735 67.0265C788.577 65.6457 786.518 65.4655 785.137 66.6242L776.469 73.8973C775.088 75.0559 774.908 77.1147 776.067 78.4955C777.226 79.8764 779.284 80.0565 780.665 78.8978L789.333 71.6248Z" fill="white"/>
<path fill-rule="evenodd" clip-rule="evenodd" d="M789.352 67.3479C788.371 66.1785 786.628 66.026 785.458 67.0072L776.791 74.2802C775.621 75.2614 775.469 77.0047 776.45 78.1741C777.431 79.3434 779.174 79.4959 780.344 78.5147L789.011 71.2417C790.181 70.2605 790.333 68.5172 789.352 67.3479ZM784.815 66.2412C786.408 64.905 788.782 65.1127 790.118 66.7051C791.454 68.2975 791.247 70.6716 789.654 72.0078L780.987 79.2808C779.394 80.617 777.02 80.4093 775.684 78.8169C774.348 77.2245 774.555 74.8504 776.148 73.5142L784.815 66.2412Z" fill="url(#paint0_linear_104_237)"/>
<path d="M767.775 71.5999C766.414 70.4173 766.27 68.3557 767.453 66.9953C768.636 65.6348 770.697 65.4907 772.058 66.6733L780.597 74.0965C781.957 75.2791 782.102 77.3406 780.919 78.7011C779.736 80.0615 777.675 80.2057 776.314 79.023L767.775 71.5999Z" fill="white"/>
<path fill-rule="evenodd" clip-rule="evenodd" d="M767.83 67.3232C768.832 66.1712 770.577 66.0491 771.73 67.0506L780.269 74.4738C781.421 75.4752 781.543 77.2209 780.542 78.373C779.54 79.525 777.794 79.6471 776.642 78.6456L768.103 71.2224C766.951 70.221 766.829 68.4753 767.83 67.3232ZM772.386 66.2959C770.817 64.9321 768.439 65.0983 767.076 66.6672C765.712 68.236 765.878 70.6134 767.447 71.9772L775.986 79.4003C777.555 80.7641 779.932 80.5979 781.296 79.029C782.66 77.4602 782.494 75.0828 780.925 73.7191L772.386 66.2959Z" fill="url(#paint1_linear_104_237)"/>
<path d="M772.825 70.5008C773.587 68.8671 772.88 66.9251 771.246 66.1633C769.612 65.4015 767.671 66.1083 766.909 67.742L760.876 80.6787C760.114 82.3124 760.821 84.2544 762.455 85.0162C764.089 85.778 766.031 85.0712 766.792 83.4375L772.825 70.5008Z" fill="white"/>
<path fill-rule="evenodd" clip-rule="evenodd" d="M771.035 66.6164C769.651 65.9713 768.007 66.5698 767.362 67.9532L761.329 80.8899C760.684 82.2734 761.282 83.9178 762.666 84.563C764.049 85.2081 765.694 84.6095 766.339 83.2261L772.371 70.2894C773.016 68.9059 772.418 67.2615 771.035 66.6164ZM766.455 67.5306C767.334 65.6466 769.573 64.8316 771.457 65.7101C773.341 66.5886 774.156 68.828 773.278 70.712L767.245 83.6487C766.367 85.5327 764.127 86.3478 762.243 85.4693C760.359 84.5907 759.544 82.3513 760.423 80.4673L766.455 67.5306Z" fill="url(#paint2_linear_104_237)"/>
</g>
<defs>
<linearGradient id="paint0_linear_104_237" x1="789.735" y1="67.0265" x2="776.067" y2="78.4955" gradientUnits="userSpaceOnUse">
<stop stop-color="#5B25AA"/>
<stop offset="1" stop-color="#5630AE"/>
</linearGradient>
<linearGradient id="paint1_linear_104_237" x1="767.453" y1="66.9952" x2="780.404" y2="78.2535" gradientUnits="userSpaceOnUse">
<stop stop-color="#5C25AA"/>
<stop offset="1" stop-color="#5530AE"/>
</linearGradient>
<linearGradient id="paint2_linear_104_237" x1="771.246" y1="66.1632" x2="762.455" y2="85.0161" gradientUnits="userSpaceOnUse">
<stop stop-color="#5C24A9"/>
<stop offset="1" stop-color="#5336B0"/>
</linearGradient>
<clipPath id="clip0_104_237">
<rect width="1024" height="280" fill="white"/>
</clipPath>
</defs>
</svg>
