<?xml version="1.0" encoding="UTF-8"?>
<svg width="18" height="16" viewBox="3.17 8.5 26 14.67" xmlns="http://www.w3.org/2000/svg" aria-label="MarathonLabs"><g transform="translate(0 -2.5)" fill="#1a1a1a"><path d="M24.0264 23.8816C24.0415 23.9147 24.0573 23.9475 24.0737 23.9798L24.1376 24.1125L24.1444 24.1093C24.5837 24.8614 25.3995 25.3667 26.3334 25.3667C27.7325 25.3667 28.8667 24.2325 28.8667 22.8333C28.8667 22.5104 28.8063 22.2017 28.6962 21.9177L28.7027 21.9145L28.6401 21.7846C28.6252 21.7518 28.6096 21.7193 28.5933 21.6873L24.3068 12.7847C24.2919 12.7518 24.2762 12.7193 24.2599 12.6872L24.1958 12.5542L24.1891 12.5574C23.7498 11.8053 22.9339 11.3 22.0001 11.3C20.6009 11.3 19.4667 12.4342 19.4667 13.8333C19.4667 14.1562 19.5271 14.465 19.6373 14.749L19.6308 14.7521L19.6931 14.8817C19.7082 14.9148 19.7239 14.9474 19.7403 14.9797L24.0264 23.8816Z"></path><path d="M14.3945 16.8736C14.3843 16.882 14.3741 16.8905 14.364 16.899L14.2246 17.0152L14.2296 17.0213C13.7589 17.4813 13.4667 18.1232 13.4667 18.8333C13.4667 20.2325 14.6009 21.3667 16 21.3667C16.5451 21.3667 17.05 21.1945 17.4633 20.9016L17.4682 20.9075L17.6086 20.7906C17.6168 20.7838 17.6249 20.777 17.633 20.7702L23.6072 15.7917C23.6163 15.7842 23.6254 15.7767 23.6343 15.7691L23.7755 15.6515L23.7704 15.6454C24.2412 15.1854 24.5334 14.5435 24.5334 13.8333C24.5334 12.4342 23.3992 11.3 22 11.3C21.455 11.3 20.9501 11.4722 20.5368 11.7651L20.5319 11.7591L20.3934 11.8745C20.3839 11.8823 20.3745 11.8902 20.3652 11.8981L14.3945 16.8736Z"></path><path d="M11.6331 11.8965C11.6249 11.8897 11.6167 11.8828 11.6085 11.876L11.4682 11.7591L11.4633 11.7651C11.05 11.4722 10.5451 11.3 10 11.3C8.6009 11.3 7.46669 12.4342 7.46669 13.8333C7.46669 14.5435 7.7589 15.1854 8.22965 15.6454L8.2246 15.6515L8.36409 15.7677C8.37415 15.7762 8.38427 15.7846 8.39445 15.793L14.3635 20.7672C14.374 20.7761 14.3845 20.7848 14.395 20.7935L14.5319 20.9075L14.5368 20.9016C14.9501 21.1945 15.4549 21.3667 16 21.3667C17.3991 21.3667 18.5334 20.2325 18.5334 18.8333C18.5334 18.1232 18.2411 17.4813 17.7704 17.0213L17.7755 17.0152L17.6323 16.8959C17.6247 16.8894 17.617 16.883 17.6093 16.8767L11.6331 11.8965Z"></path><path d="M7.70736 12.7541C7.69134 12.7881 7.67605 12.8225 7.66151 12.8573L3.7072 21.7545C3.69129 21.7882 3.6761 21.8224 3.66165 21.857L3.60377 21.9872L3.61037 21.9901C3.5173 22.2539 3.46666 22.5377 3.46666 22.8333C3.46666 24.2325 4.60087 25.3667 5.99999 25.3667C6.96145 25.3667 7.79781 24.8311 8.22698 24.0419L8.23375 24.045L8.29247 23.9129C8.3086 23.8787 8.32398 23.844 8.33861 23.809L12.2926 14.9125C12.3086 14.8785 12.3239 14.8442 12.3385 14.8094L12.3962 14.6795L12.3896 14.6765C12.4827 14.4128 12.5333 14.129 12.5333 13.8333C12.5333 12.4342 11.3991 11.3 9.99999 11.3C9.03854 11.3 8.20219 11.8356 7.77301 12.6247L7.76623 12.6217L7.70736 12.7541Z"></path></g></svg>